<svg xmlns="http://www.w3.org/2000/svg" viewBox="0 0 748.4456212 748.4512969">
  <style>
    #sun-reflection,
    #shadow {
      fill: #f02c00;
    }
    @media (prefers-color-scheme: dark) {
      #sun-reflection {
        fill: #ffde00;
      }
      #shadow {
        fill: #085c3b;
      }
    }
  </style>
  <g>
    <g id="Layer_1">
      <path id="shadow" d="M374.2256485,0c-55.4294853,0-107.8621686,12.3731597-155.1809909,33.9978105-21.6246507,47.3244981-33.9921347,99.7571814-33.9921347,155.1753151,0,206.6771736,167.5427991,374.2256485,374.2256485,374.2256485,55.4238095,0,107.8564928-12.3618082,155.1809909-33.9864589,21.618975-47.3244981,33.9864589-99.7571814,33.9864589-155.1866667C748.4456212,167.5484749,580.9028221,0,374.2256485,0Z"/>
      <path id="sun-reflection" d="M559.2781713,563.3987741c-206.6828493,0-374.2256485-167.5484749-374.2256485-374.2256485,0-55.4181338,12.367484-107.8508171,33.9921347-155.1753151C89.9097355,93.0030254,0,222.9779602,0,374.2256485c0,206.6885251,167.5427991,374.2256485,374.2256485,374.2256485,151.2533641,0,281.2282988-89.9040597,340.2335138-219.0389818-47.3244981,21.6246507-99.7571814,33.9864589-155.1809909,33.9864589Z"/>
    </g>
  </g>
</svg>
