<?xml version="1.0" encoding="UTF-8"?>
<svg xmlns="http://www.w3.org/2000/svg" version="1.1" viewBox="0 0 400 57">
  <defs>
    <style>
      .cls-1 {
        fill: #1968be;
      }

      .cls-2 {
        fill: #f03700;
      }

      .cls-3 {
        fill: #fbfeff;
      }
    </style>
  </defs>
  <!-- Generator: Adobe Illustrator 28.6.0, SVG Export Plug-In . SVG Version: 1.2.0 Build 709)  -->
  <g>
    <g id="Layer_1">
      <g id="Layer_1-2" data-name="Layer_1">
        <circle class="cls-2" cx="10" cy="10" r="10"/>
        <g>
          <g>
            <polygon class="cls-1" points="237.4 27.1 239.5 27.1 240.3 17.9 249.1 17.9 249.1 38.8 242.7 38.8 242.7 41.4 258.8 41.4 258.8 38.8 252.5 38.8 252.5 17.9 261.6 17.9 262.3 27.1 264.5 27.1 264.5 15.3 237.4 15.3 237.4 27.1"/>
            <path class="cls-1" d="M291.4,30.7c-1.1-1-2.5-1.8-4.3-2.4s-3.6-1.1-5.6-1.6c-1.1-.3-2.2-.5-3.3-.8-1-.2-1.9-.5-2.7-.9-.8-.3-1.4-.8-1.9-1.3s-.7-1.2-.7-1.9.3-1.6,1-2.2c.6-.6,1.5-1.1,2.5-1.4s2.2-.5,3.4-.5,3.1.2,4.4.6,2.4.8,3.3,1.4,1.7,1.2,2.4,1.8l2.2-2.2c-.6-.6-1.5-1.2-2.5-1.9-1.1-.7-2.4-1.3-4-1.8-1.6-.5-3.4-.8-5.5-.8s-3.4.3-5,.8c-1.6.5-2.9,1.3-3.8,2.3-1,1-1.5,2.3-1.5,3.9s.3,2.7,1,3.6,1.5,1.6,2.6,2.1,2.2.9,3.4,1.2c1.2.3,2.4.6,3.6.9,1.6.4,3.2.8,4.6,1.2,1.5.4,2.6.9,3.5,1.5.9.6,1.4,1.4,1.4,2.3s-.3,1.7-1,2.4-1.7,1.2-3,1.6c-1.3.4-2.9.6-4.8.6s-3.2-.2-4.7-.7-2.8-1.1-4-1.9c-1.2-.7-2.2-1.5-3-2.2l-1.8,2.3c.9.9,2,1.7,3.3,2.6,1.3.8,2.9,1.5,4.6,2s3.6.8,5.6.8,4.4-.3,6.2-.9c1.8-.6,3.2-1.4,4.3-2.6,1-1.1,1.5-2.6,1.5-4.2s-.5-2.9-1.6-3.9v.2Z"/>
            <path class="cls-1" d="M168.8,28.3c-1.8-.6-3.6-1.1-5.6-1.6-1.1-.3-2.2-.5-3.3-.8-1-.2-1.9-.5-2.7-.9-.8-.3-1.4-.8-1.9-1.3s-.7-1.2-.7-1.9.3-1.6,1-2.2c.6-.6,1.5-1.1,2.5-1.4s2.2-.5,3.4-.5,3.1.2,4.4.6c1.3.4,2.4.8,3.3,1.4.9.6,1.7,1.2,2.4,1.8l2.2-2.2c-.6-.6-1.5-1.2-2.5-1.9-1.1-.7-2.4-1.3-4-1.8-1.6-.5-3.4-.8-5.5-.8s-3.4.3-5,.8c-1.6.5-2.9,1.3-3.8,2.3-1,1-1.5,2.3-1.5,3.9s.3,2.7,1,3.6,1.5,1.6,2.6,2.1,2.2.9,3.4,1.2c1.2.3,2.4.6,3.6.9,1.6.4,3.2.8,4.6,1.2,1.4.4,2.6.9,3.5,1.5.9.6,1.4,1.4,1.4,2.3s-.4,1.7-1,2.4c-.7.7-1.7,1.2-3,1.6-1.3.4-2.9.6-4.8.6s-3.2-.2-4.7-.7-2.8-1.1-4-1.9c-1.2-.7-2.2-1.5-3-2.2l-1.8,2.3c.8.9,1.9,1.7,3.3,2.6,1.3.8,2.9,1.5,4.6,2,1.7.5,3.6.8,5.6.8s4.4-.3,6.2-.9c1.8-.6,3.2-1.4,4.3-2.6,1-1.1,1.5-2.6,1.5-4.2s-.5-2.9-1.6-3.9-2.5-1.8-4.3-2.4v.2Z"/>
            <polygon class="cls-1" points="229.1 17.9 230.8 23.7 233.1 23.7 232.1 15.3 207.8 15.3 207.8 17.9 212.4 17.9 212.4 38.8 207.8 38.8 207.8 41.4 233.1 41.4 233.1 32.9 230.8 32.9 230.1 38.8 215.6 38.8 215.6 28.9 226 29.1 226 26.4 215.6 26.6 215.6 17.9 229.1 17.9"/>
            <path class="cls-1" d="M198.4,28.3c-1.8-.6-3.6-1.1-5.6-1.6-1.1-.3-2.2-.5-3.3-.8-1-.2-1.9-.5-2.7-.9-.8-.3-1.4-.8-1.9-1.3s-.7-1.2-.7-1.9.3-1.6,1-2.2c.6-.6,1.5-1.1,2.5-1.4s2.2-.5,3.4-.5,3.1.2,4.4.6c1.3.4,2.4.8,3.3,1.4.9.6,1.7,1.2,2.4,1.8l2.2-2.2c-.6-.6-1.5-1.2-2.5-1.9-1.1-.7-2.4-1.3-4-1.8-1.6-.5-3.4-.8-5.5-.8s-3.4.3-5,.8c-1.6.5-2.9,1.3-3.8,2.3-1,1-1.5,2.3-1.5,3.9s.3,2.7,1,3.6,1.5,1.6,2.6,2.1,2.2.9,3.4,1.2c1.2.3,2.4.6,3.6.9,1.6.4,3.2.8,4.6,1.2,1.4.4,2.6.9,3.5,1.5.9.6,1.4,1.4,1.4,2.3s-.4,1.7-1,2.4c-.7.7-1.7,1.2-3,1.6-1.3.4-2.9.6-4.8.6s-3.2-.2-4.7-.7-2.8-1.1-4-1.9c-1.2-.7-2.2-1.5-3-2.2l-1.8,2.3c.8.9,1.9,1.7,3.3,2.6,1.3.8,2.9,1.5,4.6,2,1.7.5,3.6.8,5.6.8s4.4-.3,6.2-.9c1.8-.6,3.2-1.4,4.3-2.6,1-1.1,1.5-2.6,1.5-4.2s-.5-2.9-1.6-3.9-2.5-1.8-4.3-2.4v.2Z"/>
            <path class="cls-1" d="M131,15.3h-8.1v2.6l7.1-.4-11,24.3h3.4l3.2-7.4h14.1l3,7.4h3.4l-11-26.6h-4.2.1ZM126.7,31.9l6.2-14.2,5.8,14.2h-12Z"/>
          </g>
          <g>
            <path class="cls-2" d="M309.9,35.8c.5-.6,1-1.1,1.6-1.6s1.2-1,1.8-1.4c.6-.4,1.2-.9,1.8-1.3.8-.6,1.7-1.2,2.6-2,.9-.7,1.8-1.5,2.6-2.4.8-.9,1.5-1.8,2-2.8s.8-2.1.8-3.2c0-1.9-.7-3.5-2-4.6-1.4-1.1-3.2-1.7-5.5-1.7s-3.5.4-4.9,1.1c-1.4.7-2.6,1.7-3.6,2.9s-1.7,2.5-2.1,3.9l3.2,1.5c.4-1,1-1.9,1.7-2.7.7-.8,1.5-1.5,2.5-2s2-.8,3.1-.8,2,.3,2.7.7c.6.5.9,1.2.9,2.1s-.2,1.2-.5,1.8c-.3.6-.8,1.2-1.3,1.8-.5.6-1.2,1.2-1.9,1.7-.7.6-1.4,1.1-2.2,1.6-1,.7-2,1.4-3,2.3-1,.8-1.9,1.7-2.8,2.6-.9.9-1.6,1.8-2.2,2.7s-1,1.8-1.2,2.7l1.3,2.5h18.1v-3.6h-14.8c.4-.7.9-1.3,1.4-1.9h-.1Z"/>
            <path class="cls-2" d="M344.9,16.3c-1.5-.9-3.3-1.4-5.2-1.4s-3.7.5-5.2,1.4-2.7,2.4-3.6,4.4-1.3,4.5-1.3,7.6.4,5.9,1.2,7.9c.8,2,2,3.4,3.5,4.2,1.5.9,3.3,1.3,5.4,1.3s3.9-.4,5.4-1.3c1.5-.9,2.7-2.3,3.5-4.2.8-2,1.2-4.6,1.2-7.9s-.4-5.7-1.3-7.6c-.9-2-2.1-3.4-3.6-4.4ZM344.9,34.1c-.4,1.4-1.1,2.4-2,3s-2,.9-3.2.9-2.4-.3-3.2-.9c-.9-.6-1.5-1.6-2-3-.4-1.4-.7-3.4-.7-5.8s.3-4.3.7-5.7c.5-1.4,1.2-2.5,2.1-3.1s1.9-.9,3-.9,2.2.3,3.1.9,1.6,1.7,2.1,3.1.8,3.3.8,5.7-.2,4.4-.7,5.8h0Z"/>
            <path class="cls-2" d="M359.8,35.8c.5-.6,1-1.1,1.6-1.6s1.2-1,1.8-1.4c.6-.4,1.2-.9,1.8-1.3.8-.6,1.7-1.2,2.6-2,.9-.7,1.8-1.5,2.6-2.4.8-.9,1.5-1.8,2-2.8s.8-2.1.8-3.2c0-1.9-.7-3.5-2-4.6-1.4-1.1-3.2-1.7-5.5-1.7s-3.5.4-4.9,1.1c-1.4.7-2.6,1.7-3.6,2.9s-1.7,2.5-2.1,3.9l3.2,1.5c.4-1,1-1.9,1.7-2.7.7-.8,1.5-1.5,2.5-2s2-.8,3.1-.8,2,.3,2.7.7c.6.5.9,1.2.9,2.1s-.2,1.2-.5,1.8c-.3.6-.8,1.2-1.3,1.8-.5.6-1.2,1.2-1.9,1.7-.7.6-1.4,1.1-2.2,1.6-1,.7-2,1.4-3,2.3-1,.8-1.9,1.7-2.8,2.6-.9.9-1.6,1.8-2.2,2.7s-1,1.8-1.2,2.7l1.3,2.5h18.1v-3.6h-14.8c.4-.7.9-1.3,1.4-1.9h-.1Z"/>
            <path class="cls-2" d="M398.2,26.1c-1.2-1.1-2.9-1.6-5-1.6s-3,.3-4.3.8c-1.3.6-2.6,1.3-3.7,2.2-.2.2-.4.4-.6.6l1.7-8.9h12.1v-3.8h-15.3l-2.7,14.7,3.8,1.4c.5-.6,1.1-1.1,1.9-1.6.7-.5,1.6-1,2.5-1.3s1.9-.5,2.8-.5c1.5,0,2.6.3,3.3,1,.7.7,1.1,1.5,1.1,2.6s-.4,2.2-1.2,3.2c-.8,1.1-1.9,2.1-3.4,3-1.4,1-3.1,1.8-5,2.7-1.9.8-3.9,1.6-6,2.2l1,3.1c2.5-.7,4.9-1.5,7.2-2.4,2.3-.9,4.3-2,6-3.3,1.7-1.2,3.1-2.6,4.1-4.2,1-1.6,1.5-3.2,1.5-5.1s-.6-3.8-1.8-4.9h0Z"/>
          </g>
        </g>
        <polygon class="cls-1" points="92.8 30.3 77.4 57 108.2 57 92.8 30.3"/>
        <polygon class="cls-3" points="75.3 0 90.7 26.7 59.9 26.7 75.3 0"/>
        <polygon class="cls-3" points="24.9 26.7 55.7 26.7 40.3 0 24.9 26.7"/>
        <path class="cls-1" d="M55.7,26.7h0L40.3,0l-15.4,26.7h0L7.4,57h30.8l17.5-30.3h0ZM40.3,1.6l14,24.3h-28L40.3,1.6Z"/>
        <path class="cls-1" d="M90.7,26.7h0L75.3,0l-15.4,26.7h0l-17.5,30.3h30.8l17.5-30.3h0ZM75.3,1.6l14,24.3h-28L75.3,1.6Z"/>
      </g>
    </g>
  </g>
</svg>