<svg xmlns="http://www.w3.org/2000/svg" xmlns:xlink="http://www.w3.org/1999/xlink" id="uuid-029efff2-8a28-4c38-ae4b-22117ecdba13" viewBox="0 0 108 108"><defs><style>.uuid-479b0ed9-b165-42f0-afc8-7afac0fa60e5,.uuid-59973395-71a3-4e69-88f9-44d6146506c2{fill:none;}.uuid-479b0ed9-b165-42f0-afc8-7afac0fa60e5,.uuid-c2d3610b-a648-44a5-be6f-fbccced18526{stroke-width:0px;}.uuid-59973395-71a3-4e69-88f9-44d6146506c2{stroke:#fff;stroke-miterlimit:2.41;stroke-width:.34px;}.uuid-436eb07d-f49f-47e5-a508-20311651c601{clip-path:url(#uuid-fc7a8013-7ba2-4d57-8b5d-7c25b98fd7ae);}.uuid-c2d3610b-a648-44a5-be6f-fbccced18526{fill:#fff;}</style><clipPath id="uuid-fc7a8013-7ba2-4d57-8b5d-7c25b98fd7ae"><rect class="uuid-479b0ed9-b165-42f0-afc8-7afac0fa60e5" y="20.08" width="107.83" height="73.08"></rect></clipPath></defs><path class="uuid-c2d3610b-a648-44a5-be6f-fbccced18526" d="M102.14,66.34h1.61l.21.02.2.03.15.07.11.08.1.13.07.18.05.21.02.16-.02.13-.02.18-.03.16-.05.11-.07.08-.08.07-.08.05-.1.05-.11.03-.13.03-.16.02h-1.65v-1.8ZM103.43,66.1h-1.56v4.16h.26v-1.85h1.18l.07.02h.07l.06.02.07.03.05.03.07.03.07.05.07.07.08.07.07.1.08.11.1.13.1.15.67,1.05h.34l-.7-1.13-.13-.16-.11-.15-.11-.13-.11-.11-.07-.05-.08-.05-.08-.07-.11-.05.28-.05.25-.08.2-.12.16-.13.13-.16.1-.18.05-.2.02-.21-.02-.16-.03-.16-.05-.15-.08-.15-.08-.13-.1-.11-.15-.08-.13-.07-.16-.05-.2-.03-.23-.03h-.26ZM102.97,71.47l-.36-.05-.36-.08-.33-.11-.33-.13-.29-.16-.28-.2-.26-.21-.23-.23-.21-.26-.18-.28-.16-.28-.11-.31-.1-.31-.05-.34-.02-.33.02-.34.05-.33.1-.31.11-.31.16-.3.18-.26.21-.26.23-.23.26-.21.28-.2.29-.16.33-.15.33-.1.36-.08.36-.07.38-.02.36.02.36.07.36.08.33.1.33.15.29.16.28.2.26.21.23.23.21.26.18.26.16.3.11.31.1.31.05.33.02.34-.02.33-.05.34-.1.31-.11.31-.16.28-.18.28-.21.26-.23.23-.26.21-.28.2-.29.16-.33.13-.33.11-.36.08-.36.05-.36.02-.38-.02ZM102.96,64.74l-.38.07-.36.08-.36.11-.33.15-.31.16-.29.21-.26.21-.25.25-.23.26-.18.3-.16.3-.13.31-.08.34-.07.33-.02.36.02.34.07.34.08.33.13.33.16.29.18.28.23.28.25.25.26.21.29.2.31.18.33.15.36.11.36.08.38.05.39.02.38-.02.38-.05.36-.08.36-.11.33-.15.31-.18.3-.2.26-.21.25-.25.23-.28.18-.28.16-.29.13-.33.08-.33.07-.34.02-.34-.02-.36-.07-.33-.08-.34-.13-.31-.16-.3-.18-.3-.23-.26-.25-.25-.26-.21-.3-.21-.31-.16-.33-.15-.36-.11-.36-.08-.38-.07-.38-.02-.39.02ZM78.92,39.63v8.33h10.02l.05,22.81h8.4v-22.69h10.27v-8.45h-28.73ZM60.7,39.59v30.89h20.73l.03-8.3h-12.26v-22.64l-8.5.05ZM39.83,61.81l-.75-.11-.74-.2-.69-.25-.67-.33-.62-.39-.59-.44-.54-.49-.49-.51-.44-.59-.38-.64-.33-.67-.25-.7-.2-.74-.11-.75-.03-.79.03-.79.11-.77.2-.74.25-.7.33-.67.38-.62.44-.61.49-.54.54-.49.59-.44.62-.39.67-.33.69-.26.74-.18.75-.11.77-.05.77.05.75.11.74.18.69.26.67.33.62.39.59.44.54.49.49.54.44.61.36.62.34.67.25.7.2.74.11.77.03.79-.03.79-.11.75-.2.74-.25.7-.34.67-.36.64-.44.59-.49.51-.54.49-.59.44-.62.39-.67.33-.69.25-.74.2-.75.11-.77.05-.77-.05ZM38.93,37.76l-1.62.26-1.55.41-1.51.56-1.42.69-1.34.84-1.26.95-1.16,1.06-1.06,1.18-.93,1.28-.82,1.36-.69,1.44-.56,1.52-.41,1.59-.25,1.64-.08,1.69.08,1.69.25,1.62.41,1.6.56,1.46.69,1.46.82,1.36.93,1.28,1.06,1.16,1.16,1.08,1.26.95,1.34.83,1.42.69,1.51.56,1.55.41,1.62.25,1.67.1,1.67-.1,1.62-.25,1.56-.41,1.51-.56,1.42-.7,1.34-.82,1.26-.95,1.11-1.08,1.06-1.16.93-1.28.82-1.36.69-1.46.56-1.46.41-1.6.25-1.62.08-1.69-.08-1.69-.25-1.64-.41-1.59-.56-1.52-.69-1.44-.82-1.36-.93-1.28-1.06-1.18-1.11-1.06-1.26-.95-1.34-.84-1.42-.69-1.51-.56-1.56-.41-1.62-.26-1.67-.08-1.67.08ZM60.98,20.9l-.87.54-.87.49-.9.44-.9.36-.9.36-.93.28-.93.21-.97.16-.97.11-.98.05-.95-.02-1-.08-1.03-.13-1.05-.21-1.06-.26-1.46-.29-1.46-.33-1.42-.33-1.44-.34-1.44-.33-1.46-.33-1.47-.28-1.54-.23-1.54-.2-1.62-.11-1.67-.03-1.75.05-1.85.15-1.93.26-1.2.26-1.23.36-2.47.83-2.51,1.06-2.47,1.28-2.42,1.54-2.31,1.78-2.16,2.05-1.98,2.34-1.74,2.64-1.47,2.93-.62,1.59-.54,1.67-.44,1.75-.36,1.83-.41,3.93-.11,3.06.08,2.93.26,2.82.46,2.67.64,2.59.84,2.49,1,2.39,1.18,2.28,1.34,2.19,1.52,2.11,1.69,2.01,1.83,1.93,2.01,1.85,2.16,1.78,1.47,1.1,1.57,1.05,1.65,1,1.72.93,1.82.88,1.88.82,1.96.79,2.03.72,2.11.69,2.19.62,2.28.57,2.32.54,2.42.47,2.47.44,2.05.23,2.03.15,3.98.16,3.81-.03,3.77-.23,3.65-.41,3.54-.66,3.41-.82,3.27-1,3.13-1.2,2.98-1.39,2.83-1.56,2.67-1.74,2.5-1.91,2.32-2.1,2.16-2.26-2.37.98-2.37.92-2.41.83-2.42.77-2.42.67-2.44.61-2.44.52-2.44.43-2.44.36-2.42.29-2.42.2-2.41.12-2.39.03-2.37-.05-2.36-.11-2.32-.21-2.24-.29-2.26-.36-2.23-.46-2.18-.54-2.14-.62-2.1-.7-2.05-.79-1.98-.88-1.93-.95-1.88-1.05-1.8-1.13-1.75-1.21-1.67-1.29-1.6-1.38-1.82-1.77-1.64-1.75-1.49-1.78-1.33-1.8-1.16-1.8-1.01-1.82-.85-1.83-.7-1.8-.56-1.85-.39-1.87-.25-1.88-.1-1.9.03-1.9.18-1.92.56-3.03.75-2.72.95-2.44,1.13-2.14,1.33-1.88,1.49-1.62,1.65-1.38,1.8-1.11,1.95-.88,2.08-.66,2.23-.43,2.33-.23,2.44-.03,2.54.16,2.64.36,2.42.51,2.29.66,2.18.79,2.1.84,2.05.9,1.98.88,2.03.84,2.05.77,2.13.66,2.19.49,2.33.29,2.47.07,2.65-.2,2.83-.51,3.08-.87,3.34-1.24-2.54-1.28-2.44-1.36-2.31-1.42-2.16-1.54-2-1.67-1.77-1.82-1.52-1.98-1.24-2.16-.85.57Z"></path><g class="uuid-436eb07d-f49f-47e5-a508-20311651c601"><path class="uuid-59973395-71a3-4e69-88f9-44d6146506c2" d="M88.99,70.76h8.4v-22.69h10.27v-8.45h-28.73v8.33h10.02l.05,22.81ZM81.43,70.49l.03-8.3h-12.26v-22.64l-8.5.05v30.89h20.73ZM101.88,70.26v-4.16h1.82l.23.03.2.03.16.05.13.07.15.08.1.11.08.13.08.15.05.15.03.16.02.16-.02.21-.05.2-.1.18-.13.16-.16.13-.2.11-.25.08-.28.05.11.05.08.07.08.05.07.05.11.11.11.13.11.15.13.16.7,1.13h-.34l-.67-1.05-.1-.15-.1-.13-.08-.11-.07-.1-.08-.07-.07-.06-.07-.05-.07-.03-.05-.03-.07-.03-.07-.02h-.07l-.07-.02h-1.18v1.85h-.26ZM102.14,68.15h1.65l.16-.02.13-.03.11-.03.1-.05.08-.05.08-.07.07-.08.05-.11.03-.16.02-.18.02-.13-.02-.16-.05-.21-.07-.18-.1-.13-.11-.08-.15-.07-.2-.03-.21-.02h-1.61v1.8ZM103.35,64.85l.36.02.36.07.36.08.33.1.33.15.29.16.28.2.26.21.23.23.21.26.18.26.16.3.11.31.1.31.05.33.02.34-.02.33-.05.34-.1.31-.11.31-.16.28-.18.28-.21.26-.23.23-.26.21-.28.2-.29.16-.33.13-.33.11-.36.08-.36.05-.36.02-.38-.02-.36-.05-.36-.08-.33-.11-.33-.13-.29-.16-.28-.2-.26-.21-.23-.23-.21-.26-.18-.28-.16-.28-.11-.31-.1-.31-.05-.34-.02-.33.02-.34.05-.33.1-.31.11-.31.16-.3.18-.26.21-.26.23-.23.26-.21.28-.2.29-.16.33-.15.33-.1.36-.08.36-.07.38-.02ZM103.35,64.72l.38.02.38.07.36.08.36.11.33.15.31.16.29.21.26.21.25.25.23.26.18.3.16.3.13.31.08.34.07.33.02.36-.02.34-.07.34-.08.33-.13.33-.16.29-.18.28-.23.28-.25.25-.26.21-.29.2-.31.18-.33.15-.36.11-.36.08-.38.05-.38.02-.39-.02-.38-.05-.36-.08-.36-.11-.33-.15-.31-.18-.29-.2-.26-.21-.25-.25-.23-.28-.18-.28-.16-.29-.13-.33-.08-.33-.07-.34-.02-.34.02-.36.07-.33.08-.34.13-.31.16-.3.18-.3.23-.26.25-.25.26-.21.29-.21.31-.16.33-.15.36-.11.36-.08.38-.07.39-.02ZM40.59,37.68l1.67.08,1.62.26,1.56.41,1.51.56,1.42.69,1.34.84,1.26.95,1.11,1.06,1.06,1.18.93,1.28.82,1.36.69,1.44.56,1.52.41,1.59.25,1.64.08,1.69-.08,1.69-.25,1.62-.41,1.6-.56,1.46-.69,1.46-.82,1.36-.93,1.28-1.06,1.16-1.11,1.08-1.26.95-1.34.82-1.42.7-1.51.56-1.56.41-1.62.25-1.67.1-1.67-.1-1.62-.25-1.55-.41-1.51-.56-1.42-.69-1.34-.83-1.26-.95-1.16-1.08-1.06-1.16-.93-1.28-.82-1.36-.69-1.46-.56-1.46-.41-1.6-.25-1.62-.08-1.69.08-1.69.25-1.64.41-1.59.56-1.52.69-1.44.82-1.36.93-1.28,1.06-1.18,1.16-1.06,1.26-.95,1.34-.84,1.42-.69,1.51-.56,1.55-.41,1.62-.26,1.67-.08ZM40.59,46.52l.77.05.75.11.74.18.69.26.67.33.62.39.59.44.54.49.49.54.44.61.36.62.34.67.25.7.2.74.11.77.03.79-.03.79-.11.75-.2.74-.25.7-.34.67-.36.64-.44.59-.49.51-.54.49-.59.44-.62.39-.67.33-.69.25-.74.2-.75.11-.77.05-.77-.05-.75-.11-.74-.2-.69-.25-.67-.33-.62-.39-.59-.44-.54-.49-.49-.51-.44-.59-.38-.64-.33-.67-.25-.7-.2-.74-.11-.75-.03-.79.03-.79.11-.77.2-.74.25-.7.33-.67.38-.62.44-.61.49-.54.54-.49.59-.44.62-.39.67-.33.69-.26.74-.18.75-.11.77-.05ZM91.2,77.69l-2.37.98-2.37.92-2.41.83-2.42.77-2.42.67-2.44.61-2.44.52-2.44.43-2.44.36-2.42.29-2.42.2-2.41.12-2.39.03-2.37-.05-2.36-.11-2.32-.21-2.24-.29-2.26-.36-2.23-.46-2.18-.54-2.14-.62-2.1-.7-2.05-.79-1.98-.88-1.93-.95-1.88-1.05-1.8-1.13-1.75-1.21-1.67-1.29-1.6-1.38-1.82-1.77-1.64-1.75-1.49-1.78-1.33-1.8-1.16-1.8-1.02-1.82-.85-1.83-.7-1.8-.56-1.85-.39-1.87-.25-1.88-.1-1.9.03-1.9.18-1.92.56-3.03.75-2.72.95-2.44,1.13-2.14,1.33-1.88,1.49-1.62,1.65-1.38,1.8-1.11,1.95-.88,2.08-.66,2.23-.43,2.33-.23,2.44-.03,2.54.16,2.64.36,2.42.51,2.29.66,2.18.79,2.1.84,2.05.9,1.98.88,2.03.84,2.05.77,2.13.65,2.19.49,2.33.29,2.47.07,2.65-.2,2.83-.51,3.08-.87,3.34-1.24-2.54-1.28-2.44-1.36-2.31-1.42-2.16-1.54-2-1.67-1.77-1.82-1.52-1.98-1.24-2.16-.85.57-.87.54-.87.49-.9.44-.9.36-.9.36-.93.28-.93.21-.97.16-.97.11-.98.05-.95-.02-1-.08-1.03-.13-1.05-.21-1.06-.26-1.46-.29-1.46-.33-1.42-.33-1.44-.34-1.44-.33-1.46-.33-1.47-.28-1.54-.23-1.54-.2-1.62-.11-1.67-.03-1.75.05-1.85.15-1.93.26-1.2.26-1.23.36-2.47.83-2.51,1.06-2.47,1.28-2.42,1.54-2.31,1.78-2.16,2.05-1.98,2.34-1.74,2.64-1.47,2.93-.62,1.59-.54,1.67-.44,1.75-.36,1.83-.41,3.93-.11,3.06.08,2.93.26,2.82.46,2.67.64,2.59.83,2.49,1,2.39,1.18,2.28,1.34,2.19,1.52,2.11,1.69,2.01,1.83,1.93,2.01,1.85,2.16,1.78,1.47,1.1,1.57,1.05,1.65,1,1.72.93,1.82.88,1.88.82,1.96.79,2.03.72,2.11.69,2.19.62,2.28.57,2.32.54,2.42.47,2.47.44,2.05.23,2.03.15,3.98.16,3.81-.03,3.77-.23,3.65-.41,3.54-.66,3.41-.82,3.27-1,3.13-1.2,2.98-1.39,2.83-1.56,2.67-1.74,2.5-1.92,2.32-2.1,2.16-2.26Z"></path></g><rect class="uuid-479b0ed9-b165-42f0-afc8-7afac0fa60e5" y="20.08" width="107.83" height="73.08"></rect></svg>