<?xml version="1.0" encoding="UTF-8"?>
<svg xmlns="http://www.w3.org/2000/svg" xmlns:xlink="http://www.w3.org/1999/xlink" id="Ebene_1" version="1.1" viewBox="0 0 373 97.5">
  <defs>
    <linearGradient id="Unbenannter_Verlauf_7" data-name="Unbenannter Verlauf 7" x1="197.5462703" y1="-150.7813806" x2="166.7560001" y2="-97.4510683" gradientTransform="translate(-151 -74) scale(1 -1)" gradientUnits="userSpaceOnUse">
      <stop offset="0" stop-color="#c83737"></stop>
      <stop offset="1" stop-color="#de8787"></stop>
    </linearGradient>
  </defs>
  <path d="M4.791,46.312l23.1820972,40.1519,1.0328-.0186,2.4941028-4.5L7.7969,40.8921034l-3.0059,5.4198966ZM41.833,63.3047028L18.1298974,22.249l-3.0048974,5.4229037,23.7030969,41.054699,3.0049031-5.4218999ZM52.165,44.6641033L28.4618972,3.6089043l-3.0057999,5.4242999,23.7049994,41.053699,3.0039033-5.4227999ZM47,53.984403L23.2958973,12.9292041l-3.0058973,5.4247959,23.7040968,41.0532029,3.0059032-5.4227999ZM59.8808964,68.6582027l3.0062999-5.4257999-2.5419999-4.4012999-2.8959999,5.6122999,2.4316999,4.2147999ZM54.5858965,59.4824029l3.0058999-5.4218999-3.4618999-5.9945998-3.0468965,5.3500968,3.5028965,6.0664029ZM46.0497967,62.9707028l3.3690999,5.8358999,3.0048999-5.4247999-3.3749999-5.8456999-2.9989999,5.4345999ZM64.877,66.6816027l-3.146,5.1816999,3.3797963,5.8534974,3.0063999-5.4208974-3.2401962-5.6142999ZM12.9639,31.5708036l-3.0059,5.4223999,23.7030971,41.0526965,3.0059029-5.4219L12.9639,31.5708036ZM54.77,67.4434027l-3.0532034,5.3417999,2.9970999,5.1913974,3.0062999-5.4247974-2.9501964-5.1083999ZM70.9208961,77.1484l-3.1967999,5.0938,2.0190999,3.4941,1.4467-.0263,2.2901039-4.1309-2.5591039-4.4307ZM56.6898965,81.4023l2.6088999,4.5157,1.2793-.0215,2.3730999-4.2803-3.1103999-5.3877-3.1508999,5.1738ZM46.998,82.8789l1.8588967,3.2227,1.3692-.0235,2.3280999-4.2021-2.3690999-4.1045-3.1870966,5.1074ZM35.784197,81.7266l2.6298999,4.5566,1.33-.0225,2.3466999-4.2373-3.2118999-5.5644-3.0946999,5.2676ZM44.5258968,67.9687027l-3.3539999,4.8203999,3.0801031,5.3348974,3.0067967-5.4218974-2.7328999-4.7333999Z" fill="url(#Unbenannter_Verlauf_7)"></path>
  <path d="M85.9281957,26.8042037l-34.5712991,62.3695963,6.1362998-.1074,31.5409992-56.9004-3.1059999-5.3617963ZM75.252896,8.3789042L30.2650971,89.542l6.1367998-.1084L78.3588959,13.7402041l-3.1059999-5.3612999ZM80.5897959,17.591804l-39.779699,71.765596,6.1366998-.1074L83.6967958,22.9531038l-3.1069999-5.3612999ZM91.2650956,36.0171035l-29.3622993,52.9711965,6.1352998-.1074,26.3329993-47.5039-3.1059999-5.3598965ZM96.604,45.23l-24.1548039,43.5766,6.1348039-.1084,21.0961954-38.1582-3.0761954-5.31Z" fill="#de8787"></path>
  <g>
    <path d="M125.0727947,38.9824034h23.4959994v5.3905966h-17.1541996v7.9981031h14.3255996v5.2147999h-14.3255996v7.1581998h18.1122995v5.3915999h-24.4540994v-31.1532992Z" fill="#c83737"></path>
    <path d="M154.407694,57.8516029v-18.8691995h6.4330998v17.3661996c0,6.0097998,2.3266999,8.484397,7.4364998,8.484397,5.1098999,0,7.4824998-2.4745972,7.4824998-8.484397v-17.3661996h6.4330998v18.8691995c0,8.5282998-4.6537999,12.9022997-13.9155996,12.9022997-9.0790998,0-13.8695996-4.3739999-13.8695996-12.9022997Z" fill="#c83737"></path>
    <path d="M208.6083926,70.1357026l-6.3876998-8.8377998h-6.6151998v8.8377998h-6.4335998v-31.1532992h13.0487997c8.4863072,0,13.0028997,3.9325966,13.0028997,11.1357997,0,4.9930999-2.2811999,8.3514998-6.4335925,9.9862997l7.6191924,10.0311997h-7.8007998ZM208.5165926,50.3389031c0-3.9326999-2.1444999-5.9659031-6.7977998-5.9659031h-6.1132998v11.578203h5.5653999c5.0185999,0,7.3456998-2.2978999,7.3456998-5.6122999Z" fill="#c83737"></path>
    <path d="M218.4394924,54.581103c0-9.5009998,6.5702998-16.2177996,17.0633996-16.2177996,10.1288997,0,17.1093996,6.4520998,17.1093996,16.2177996,0,9.4559998-6.6161998,16.1727996-17.1093996,16.1727996-10.128892,0-17.0633996-6.4071998-17.0633996-16.1727996ZM245.9052917,54.581103c0-6.0537998-4.0146999-10.3847997-10.4023997-10.3847997-6.0682998,0-10.3563997,4.0653999-10.3563997,10.3847997,0,6.0096998,4.0145999,10.3407997,10.3563997,10.3407997,6.1132998,0,10.4023997-4.0663999,10.4023997-10.3407997Z" fill="#c83737"></path>
    <path d="M256.5800914,52.0176031h14.7362996v5.5243969h-14.7362996v-5.5243969Z" fill="#c83737"></path>
    <path d="M301.7020903,50.1621031c0,7.8651998-4.7909999,11.5331997-13.7332997,11.5331997h-5.6572999v8.4403998h-6.4325998v-31.1532992h12.8202997c8.4862998,0,13.0028997,3.8442999,13.0028997,11.1796997ZM294.9491905,50.3389031c0-3.9326999-2.0526999-5.9659031-6.7977998-5.9659031h-5.8398999v11.975603h5.3378999c5.0644999,0,7.2997998-2.2538999,7.2997998-6.0096998Z" fill="#c83737"></path>
    <path d="M324.1024897,64.2148028h-14.6454897l-2.7373098,5.9208999h-6.8885998l15.1922996-31.1977026h3.5126999l15.2382996,31.1977026h-6.9345998l-2.7372999-5.9208999ZM311.55569,59.1328029h10.4481997l-5.2470999-11.7988029-5.2010999,11.7988029Z" fill="#c83737"></path>
    <path d="M357.2255889,70.1357026l-6.3876998-8.8377998h-6.6151998v8.8377998h-6.4326892v-31.1532992h13.047889c8.4862998,0,13.0028997,3.9325966,13.0028997,11.1357997,0,4.9930999-2.2811999,8.3514998-6.4325998,9.9862997l7.6190998,10.0311997h-7.8016998ZM357.1347889,50.3389031c0-3.9326999-2.1445999-5.9659031-6.7978998-5.9659031h-6.1141998v11.578203h5.5663999c5.0184999,0,7.3456998-2.2978999,7.3456998-5.6122999Z" fill="#c83737"></path>
  </g>
  <g>
    <path d="M124.7363281,85.2685547c0-3.7441406,2.4140625-6.0205078,6.3452148-6.0205078,2.4140625,0,4.1552734.8740234,5.328125,2.2431641l-1.8793945,1.5341797c-.7070312-.9404297-1.828125-1.5507812-3.3798828-1.5507812-2.3964844,0-3.8793945,1.4023438-3.8793945,3.7939453,0,2.375,1.4829102,3.8759766,3.8793945,3.8759766,1.5517578,0,2.6728516-.6103516,3.3798828-1.5507812l1.8793945,1.5341797c-1.1728516,1.3525391-2.828125,2.2099609-5.328125,2.2099609-3.9311523,0-6.3452148-2.3251953-6.3452148-6.0693359Z" fill="#de8787"></path>
    <path d="M137.0200195,85.3007812c0-3.5458984,2.4829102-6.0527344,6.4487305-6.0527344,3.8276367,0,6.4658203,2.4082031,6.4658203,6.0527344,0,3.5302734-2.5,6.0371094-6.4658203,6.0371094-3.8276367,0-6.4487305-2.3916016-6.4487305-6.0371094ZM147.3999023,85.3007812c0-2.2597656-1.5170898-3.8759766-3.9311523-3.8759766-2.293457,0-3.9140625,1.5175781-3.9140625,3.8759766,0,2.2441406,1.5175781,3.8603516,3.9140625,3.8603516,2.3105469,0,3.9311523-1.5175781,3.9311523-3.8603516Z" fill="#de8787"></path>
    <path d="M162.6508789,79.4785156v11.6289062h-1.2070312l-7.293457-7.2080078v7.2080078h-2.4140625v-11.6289062h1.1899414l7.3105469,7.2080078v-7.2080078h2.4140625Z" fill="#de8787"></path>
    <path d="M165.0039062,79.4785156h8.8974609v2.0126953h-6.5180664v3.5292969h5.5693359v2.0126953h-5.5693359v4.0742188h-2.3793945v-11.6289062Z" fill="#de8787"></path>
    <path d="M175.3164062,79.4785156h8.8798828v2.0126953h-6.4829102v2.9853516h5.4140625v1.9462891h-5.4140625v2.671875h6.8452148v2.0126953h-9.2421875v-11.6289062Z" fill="#de8787"></path>
    <path d="M193.6367188,91.1074219l-2.4140625-3.2988281h-2.5v3.2988281h-2.4316406v-11.6289062h4.9316406c3.2070312,0,4.9140625,1.4677734,4.9140625,4.1572266,0,1.8632812-.8623047,3.1171875-2.4316406,3.7275391l2.8798828,3.7441406h-2.9482422ZM193.6015625,83.7177734c0-1.4677734-.8095703-2.2265625-2.5683594-2.2265625h-2.3105469v4.3212891h2.1035156c1.8964844,0,2.7753906-.8574219,2.7753906-2.0947266Z" fill="#de8787"></path>
    <path d="M197.9941406,79.4785156h8.8798828v2.0126953h-6.4833984v2.9853516h5.4140625v1.9462891h-5.4140625v2.671875h6.8447266v2.0126953h-9.2412109v-11.6289062Z" fill="#de8787"></path>
    <path d="M219.8828125,79.4785156v11.6289062h-1.2070312l-7.2929688-7.2080078v7.2080078h-2.4140625v-11.6289062h1.1894531l7.3105469,7.2080078v-7.2080078h2.4140625Z" fill="#de8787"></path>
    <path d="M221.7001953,85.2685547c0-3.7441406,2.4130859-6.0205078,6.3447266-6.0205078,2.4140625,0,4.1552734.8740234,5.328125,2.2431641l-1.8798828,1.5341797c-.7070312-.9404297-1.8271484-1.5507812-3.3789062-1.5507812-2.3974609,0-3.8798828,1.4023438-3.8798828,3.7939453,0,2.375,1.4824219,3.8759766,3.8798828,3.8759766,1.5517578,0,2.671875-.6103516,3.3789062-1.5507812l1.8798828,1.5341797c-1.1728516,1.3525391-2.828125,2.2099609-5.328125,2.2099609-3.9316406,0-6.3447266-2.3251953-6.3447266-6.0693359Z" fill="#de8787"></path>
    <path d="M234.7460938,79.4785156h8.8798828v2.0126953h-6.4833984v2.9853516h5.4140625v1.9462891h-5.4140625v2.671875h6.8447266v2.0126953h-9.2412109v-11.6289062Z" fill="#de8787"></path>
    <path d="M259.8505859,89.0947266v2.0126953h-9.4316406v-.5439453c.171875-1.8808594,1.3789062-3.2666016,3.9824219-4.8496094,1.3105469-.8085938,2.9316406-1.6494141,2.9140625-2.9199219-.0166016-.9892578-.8964844-1.484375-2-1.484375-1.4140625,0-2.4482422.8740234-2.4824219,2.1933594v.1982422h-2.2763672v-.3789062c.0175781-2.4746094,1.9482422-4.0742188,4.828125-4.0742188,2.5,0,4.4140625,1.1708984,4.4140625,3.4804688,0,2.0449219-1.6035156,3.2988281-4.1386719,4.5683594-1.3105469.6601562-2.0693359,1.1875-2.5,1.7978516h6.6904297Z" fill="#de8787"></path>
    <path d="M261.0615234,85.3007812c0-3.7929688,2.1035156-6.0527344,5.5517578-6.0527344,3.4306641,0,5.5517578,2.2597656,5.5517578,6.0527344,0,3.7773438-2.1210938,6.0371094-5.5517578,6.0371094-3.4482422,0-5.5517578-2.2597656-5.5517578-6.0371094ZM269.6992188,85.3007812c0-2.4736328-1.1894531-3.9091797-3.0859375-3.9091797-1.9140625,0-3.0869141,1.4355469-3.0869141,3.9091797,0,2.4580078,1.1728516,3.8935547,3.0869141,3.8935547,1.8964844,0,3.0859375-1.4355469,3.0859375-3.8935547Z" fill="#de8787"></path>
    <path d="M282.6210938,89.0947266v2.0126953h-9.4316406v-.5439453c.171875-1.8808594,1.3789062-3.2666016,3.9824219-4.8496094,1.3105469-.8085938,2.9316406-1.6494141,2.9140625-2.9199219-.0166016-.9892578-.8964844-1.484375-2-1.484375-1.4140625,0-2.4482422.8740234-2.4824219,2.1933594v.1982422h-2.2763672v-.3789062c.0175781-2.4746094,1.9482422-4.0742188,4.828125-4.0742188,2.5,0,4.4140625,1.1708984,4.4140625,3.4804688,0,2.0449219-1.6035156,3.2988281-4.1386719,4.5683594-1.3105469.6601562-2.0693359,1.1875-2.5,1.7978516h6.6904297Z" fill="#de8787"></path>
    <path d="M293.9404297,87.2314453c0,2.6552734-2.0175781,4.1064453-4.828125,4.1064453-3.4306641,0-5.2412109-2.1113281-5.2412109-5.8222656,0-4.3046875,2.2587891-6.2675781,5.328125-6.2675781,2.7412109,0,4.3271484,1.4345703,4.3447266,3.1005859v.1816406l-2.3623047.0166016c-.0683594-.7753906-.7070312-1.3359375-2.0341797-1.3359375-1.8447266,0-2.7939453,1.3525391-2.8798828,3.3974609.6894531-.6103516,1.7929688-1.0390625,3.1035156-1.0390625,2.4316406,0,4.5693359,1.1054688,4.5693359,3.6621094ZM291.5263672,87.3134766c0-1.2861328-1.1201172-2.0126953-2.5175781-2.0126953-1.3964844,0-2.5341797.7431641-2.5341797,1.8974609,0,1.0888672.9658203,2.1767578,2.6376953,2.1767578,1.6035156,0,2.4140625-.9228516,2.4140625-2.0615234Z" fill="#de8787"></path>
  </g>
</svg>
