<?xml version="1.0" encoding="UTF-8"?>
<svg id="a" data-name="レイヤー 1" xmlns="http://www.w3.org/2000/svg" width="581.33" height="229.52" viewBox="0 0 581.33 229.52">
  <g>
    <path d="M386.64,51l-45.56,1.58-25.28,1.4-1.88.06c8.54-1.51,17.02-3.15,25.59-5.13,13.02-3,25.73-6.8,38.24-11.46,11.65-4.34,22.58-10.04,32.66-17.31,7.92-5.71,15.47-11.73,22.76-18.18,2.01-1.78,4.28-2.44,6.91-1.57,3.9,1.29,6.05-1.25,9.79-.03,4.68,1.53,7.88-2.38,11.82,1.27,11.83,10.93,26.99,23.25,41.46,30.26,9.82,4.76,19.9,8.52,30.25,11.95l16.8,5.01c8.23,2.37,16.41,3.98,24.72,5.71-26.11-1.66-51.98-2.77-78.13-3.37-36.73-.84-73.26-1.01-110.14-.18ZM461.17,39.15c-2.08-5.21-4.12-9.73-5.57-14.84,4.54,3.43,8.97,6.48,13.81,9.3,4.41,2.41,8.76,4.55,13.55,6.27-5.45-5.14-10.54-10.31-14.76-16.66,9.51,4.82,18.99,8.67,29.3,11.33l-8.27-6.3c-10.31-7.85-20-16.25-29.47-25.11-1.11-1.04-2.92-.86-4.22-.47-2.01.61-3.79.76-5.78.04-1.36-.5-3.01-.5-4.38,0-1.94.71-3.63.59-5.61-.02-1.27-.39-3.15-.65-4.29.35-8.95,7.88-18.07,15.4-27.9,22.2-7.06,4.88-14.27,9.18-21.71,13.73,11.86-3.02,23.15-7.07,34.38-12.67-2.12,3.25-4.51,5.96-6.94,8.74l-4.64,5.16c2.57-.93,4.86-2.07,7.32-3.31,6.71-3.39,12.73-7.41,18.74-12.34-1.22,5.29-3.14,9.85-4.94,14.74,6.01-4.24,11.22-9.33,15.33-15.37,4.61,5.92,9.73,11.17,16.05,15.22Z" fill="#0b2a4a"/>
    <path d="M461.17,39.15c-6.33-4.05-11.45-9.3-16.05-15.22-4.12,6.04-9.32,11.13-15.33,15.37,1.8-4.89,3.73-9.45,4.94-14.74-6.02,4.92-12.03,8.95-18.74,12.34-2.46,1.24-4.75,2.39-7.32,3.31l4.64-5.16c2.43-2.79,4.82-5.49,6.94-8.74-11.23,5.6-22.52,9.65-34.38,12.67,7.44-4.55,14.65-8.84,21.71-13.73,9.83-6.8,18.95-14.32,27.9-22.2,1.14-1,3.02-.74,4.29-.35,1.98.6,3.67.73,5.61.02,1.36-.5,3.02-.5,4.38,0,1.98.73,3.76.57,5.78-.04,1.3-.39,3.11-.57,4.22.47,9.46,8.86,19.15,17.26,29.47,25.11l8.27,6.3c-10.31-2.65-19.79-6.5-29.3-11.33,4.23,6.35,9.32,11.52,14.76,16.66-4.78-1.72-9.14-3.86-13.55-6.27-4.84-2.83-9.28-5.88-13.81-9.3,1.45,5.11,3.49,9.63,5.57,14.84Z" fill="#fff"/>
  </g>
  <g>
    <path d="M13.85,38.1h74.04v22.24h-47.51v27.2h40.59v22.24h-40.59v45.63H13.85V38.1Z" fill="#0b2a4a"/>
    <path d="M108.17,38.1h28.94l19.03,52.12c2.35,6.92,4.4,14.44,6.75,21.66h.72c2.35-7.22,4.34-14.74,6.69-21.66l18.44-52.12h28.94v117.31h-24.15v-43.05c0-11.44,2.14-28.51,3.39-39.86h-.72l-9.62,27.76-16.59,44.94h-14.72l-16.62-44.94-9.36-27.76h-.72c1.25,11.35,3.39,28.42,3.39,39.86v43.05h-23.79V38.1Z" fill="#0b2a4a"/>
  </g>
  <g>
    <path d="M236.06,146.98c16.16-15.28,27.55-26.13,27.55-35.22,0-6.14-3.41-9.53-9-9.53-4.52,0-8.1,3.11-11.28,6.46l-7.97-7.93c6.25-6.68,12.18-10.06,21.26-10.06,12.52,0,21.06,7.99,21.06,20.24,0,10.69-9.99,22.09-20.38,32.84,3.27-.37,7.69-.73,10.64-.73h12.78v12.36h-44.67v-8.43Z" fill="#0b2a4a"/>
    <path d="M288.84,123.37c0-21.61,9.07-32.67,22.72-32.67s22.72,11.14,22.72,32.67-9.07,33.24-22.72,33.24-22.72-11.62-22.72-33.24ZM320.37,123.37c0-17.33-3.86-21.3-8.81-21.3s-8.81,3.97-8.81,21.3,3.86,21.87,8.81,21.87,8.81-4.54,8.81-21.87Z" fill="#0b2a4a"/>
    <path d="M341.66,146.98c16.16-15.28,27.55-26.13,27.55-35.22,0-6.14-3.41-9.53-9-9.53-4.52,0-8.1,3.11-11.28,6.46l-7.97-7.93c6.25-6.68,12.18-10.06,21.26-10.06,12.52,0,21.06,7.99,21.06,20.24,0,10.69-9.99,22.09-20.38,32.84,3.27-.37,7.69-.73,10.64-.73h12.78v12.36h-44.66v-8.43Z" fill="#0b2a4a"/>
    <path d="M394.84,125.12c0-23.74,12.32-34.42,25.67-34.42,8.4,0,14.54,3.55,18.57,7.65l-7.77,8.79c-2.16-2.45-6.14-4.58-9.85-4.58-7.39,0-13.21,5.63-13.21,22.56,0,15.77,4.95,20.45,10.31,20.45,4.34,0,8-3.07,8-10.25,0-6.72-3.54-9.25-8.34-9.25-3.32,0-7,1.85-9.88,6.85l-.66-9.6c3.28-4.81,9.2-7.62,13.38-7.62,10.87,0,18.92,6.18,18.92,19.64s-9.61,21.29-21.12,21.29c-12.31,0-24.03-9.19-24.03-31.49Z" fill="#0b2a4a"/>
  </g>
  <g>
    <path d="M16.36,192.38h-7.94v-2.83h19.22v2.83h-7.94v23.42h-3.34v-23.42Z"/>
    <path d="M53.86,202.59c0-8.41,4.63-13.51,11.22-13.51s11.22,5.12,11.22,13.51-4.63,13.7-11.22,13.7-11.22-5.29-11.22-13.7ZM72.84,202.59c0-6.54-3.08-10.57-7.77-10.57s-7.77,4.03-7.77,10.57,3.08,10.76,7.77,10.76,7.77-4.22,7.77-10.76Z"/>
    <path d="M105.94,189.56h3.34v13.17h.11l10.91-13.17h3.78l-8.21,10,9.48,16.25h-3.73l-7.83-13.64-4.5,5.34v8.3h-3.34v-26.25Z"/>
    <path d="M156.72,205.63l-7.89-16.08h3.57l3.39,7.41c.84,1.93,1.63,3.76,2.54,5.72h.16c.91-1.96,1.82-3.79,2.62-5.72l3.39-7.41h3.46l-7.89,16.08v10.17h-3.34v-10.17Z"/>
    <path d="M193.42,202.59c0-8.41,4.63-13.51,11.22-13.51s11.22,5.12,11.22,13.51-4.63,13.7-11.22,13.7-11.22-5.29-11.22-13.7ZM212.4,202.59c0-6.54-3.08-10.57-7.77-10.57s-7.77,4.03-7.77,10.57,3.08,10.76,7.77,10.76,7.77-4.22,7.77-10.76Z"/>
  </g>
  <g>
    <path d="M303.9,173.66h-4.62v-.87h10.25v.87h-4.62v13.63h-1.01v-13.63Z"/>
    <path d="M312.19,171.46h.97v4.59l-.02,2.33c1.1-1.1,2.2-1.92,3.66-1.92,2.18,0,3.19,1.32,3.19,4.05v6.78h-.97v-6.65c0-2.24-.71-3.3-2.41-3.3-1.26,0-2.17.66-3.46,1.98v7.97h-.97v-15.83Z"/>
    <path d="M322.92,182.03c0-3.45,2.24-5.57,4.61-5.57,2.5,0,4.04,1.78,4.04,4.89,0,.26,0,.53-.05.79h-7.6c.04,2.67,1.6,4.57,3.98,4.57,1.14,0,2.05-.38,2.84-.94l.4.74c-.83.52-1.78,1.04-3.33,1.04-2.7,0-4.88-2.07-4.88-5.53ZM330.65,181.34c0-2.7-1.22-4.04-3.12-4.04-1.79,0-3.4,1.51-3.62,4.04h6.74Z"/>
    <path d="M337.71,186.68c4.61-4.7,6.92-7.31,6.92-9.76,0-1.75-.94-3.12-3.06-3.12-1.28,0-2.42.78-3.28,1.83l-.64-.6c1.06-1.18,2.3-2.09,4.01-2.09,2.5,0,3.96,1.57,3.96,3.94,0,2.8-2.55,5.48-6.46,9.62.78-.05,1.6-.1,2.37-.1h4.79v.87h-8.62v-.61Z"/>
    <path d="M355.72,174.09h-7.41v-.87h8.64v.59c-3.37,4.46-4.2,7.99-4.42,13.48h-1.05c.22-5.67,1.41-9.23,4.24-13.2Z"/>
    <path d="M360.16,184.37v-6.8h-1.65v-.76l1.67-.09.12-3.06h.83v3.06h3.06v.85h-3.06v6.87c0,1.35.34,2.26,1.79,2.26.39,0,.94-.17,1.32-.33l.26.79c-.61.22-1.29.4-1.73.4-2.03,0-2.62-1.29-2.62-3.18Z"/>
    <path d="M366.77,171.46h.97v4.59l-.02,2.33c1.1-1.1,2.2-1.92,3.66-1.92,2.18,0,3.19,1.32,3.19,4.05v6.78h-.97v-6.65c0-2.24-.71-3.3-2.41-3.3-1.26,0-2.17.66-3.46,1.98v7.97h-.97v-15.83Z"/>
    <path d="M382.9,172.79h1.01v14.5h-1.01v-14.5Z"/>
    <path d="M388.07,176.72h.82l.11,1.64h.05c1.08-1.07,2.18-1.9,3.63-1.9,2.18,0,3.19,1.32,3.19,4.05v6.78h-.97v-6.65c0-2.24-.71-3.3-2.41-3.3-1.26,0-2.17.66-3.46,1.98v7.97h-.97v-10.57Z"/>
    <path d="M400.02,184.37v-6.8h-1.65v-.76l1.67-.09.12-3.06h.83v3.06h3.06v.85h-3.06v6.87c0,1.35.34,2.26,1.79,2.26.39,0,.94-.17,1.32-.33l.26.79c-.61.22-1.29.4-1.73.4-2.03,0-2.62-1.29-2.62-3.18Z"/>
    <path d="M405.51,182.03c0-3.45,2.24-5.57,4.61-5.57,2.5,0,4.04,1.78,4.04,4.89,0,.26,0,.53-.05.79h-7.6c.04,2.67,1.6,4.57,3.98,4.57,1.14,0,2.05-.38,2.84-.94l.4.74c-.83.52-1.78,1.04-3.33,1.04-2.7,0-4.88-2.07-4.88-5.53ZM413.24,181.34c0-2.7-1.22-4.04-3.12-4.04-1.79,0-3.4,1.51-3.62,4.04h6.74Z"/>
    <path d="M417.02,176.72h.82l.11,1.97h.05c.71-1.3,1.75-2.24,3-2.24.39,0,.7.05,1.05.22l-.22.88c-.36-.13-.55-.18-.96-.18-.95,0-2.08.72-2.88,2.72v7.19h-.97v-10.57Z"/>
    <path d="M424,176.72h.82l.11,1.64h.05c1.08-1.07,2.18-1.9,3.63-1.9,2.18,0,3.19,1.32,3.19,4.05v6.78h-.97v-6.65c0-2.24-.71-3.3-2.41-3.3-1.26,0-2.17.66-3.46,1.98v7.97h-.97v-10.57Z"/>
    <path d="M434.94,184.66c0-2.35,2.12-3.47,6.82-3.99.03-1.62-.41-3.36-2.49-3.36-1.43,0-2.66.7-3.37,1.24l-.45-.72c.75-.53,2.21-1.37,3.93-1.37,2.5,0,3.35,1.82,3.35,4.08v6.75h-.82l-.11-1.37h-.05c-1.08.87-2.36,1.64-3.75,1.64-1.67,0-3.06-.91-3.06-2.89ZM441.76,185.01v-3.6c-4.34.5-5.82,1.51-5.82,3.2,0,1.52,1.03,2.1,2.24,2.1s2.28-.58,3.58-1.7Z"/>
    <path d="M446.51,184.37v-6.8h-1.65v-.76l1.67-.09.12-3.06h.83v3.06h3.06v.85h-3.06v6.87c0,1.35.34,2.26,1.79,2.26.39,0,.94-.17,1.32-.33l.26.79c-.61.22-1.29.4-1.73.4-2.03,0-2.62-1.29-2.62-3.18Z"/>
    <path d="M452.75,173.31c0-.55.4-.86.88-.86s.88.32.88.86c0,.51-.4.86-.88.86s-.88-.36-.88-.86ZM453.12,176.72h.97v10.57h-.97v-10.57Z"/>
    <path d="M457.27,182.03c0-3.53,2.21-5.57,4.74-5.57s4.74,2.03,4.74,5.57-2.21,5.53-4.74,5.53-4.74-2.03-4.74-5.53ZM465.74,182.03c0-2.78-1.59-4.71-3.72-4.71s-3.72,1.93-3.72,4.71,1.59,4.67,3.72,4.67,3.72-1.89,3.72-4.67Z"/>
    <path d="M469.93,176.72h.82l.11,1.64h.05c1.08-1.07,2.18-1.9,3.63-1.9,2.18,0,3.19,1.32,3.19,4.05v6.78h-.97v-6.65c0-2.24-.71-3.3-2.41-3.3-1.26,0-2.17.66-3.46,1.98v7.97h-.97v-10.57Z"/>
    <path d="M480.88,184.66c0-2.35,2.12-3.47,6.82-3.99.03-1.62-.41-3.36-2.49-3.36-1.43,0-2.66.7-3.37,1.24l-.45-.72c.75-.53,2.21-1.37,3.93-1.37,2.5,0,3.35,1.82,3.35,4.08v6.75h-.82l-.11-1.37h-.05c-1.08.87-2.36,1.64-3.75,1.64-1.67,0-3.06-.91-3.06-2.89ZM487.7,185.01v-3.6c-4.34.5-5.82,1.51-5.82,3.2,0,1.52,1.03,2.1,2.24,2.1s2.28-.58,3.58-1.7Z"/>
    <path d="M492.44,185.87v-14.41h.97v14.54c0,.47.19.69.46.69.09,0,.18,0,.4-.04l.16.79c-.2.06-.38.11-.7.11-.85,0-1.29-.52-1.29-1.68Z"/>
    <path d="M299.65,221.37l.65-.7c1.05,1.19,2.57,1.96,4.26,1.96,2.21,0,3.61-1.19,3.61-2.91s-1.18-2.39-2.61-3.03l-2.2-.99c-1.26-.56-2.94-1.46-2.94-3.61s1.8-3.57,4.22-3.57c1.75,0,3.15.79,4.04,1.74l-.58.67c-.85-.9-2-1.49-3.45-1.49-1.92,0-3.2,1.02-3.2,2.59,0,1.69,1.45,2.33,2.51,2.8l2.19.98c1.62.72,3.05,1.62,3.05,3.84s-1.83,3.9-4.64,3.9c-2.12,0-3.75-.9-4.9-2.18Z"/>
    <path d="M310.62,227.88l.22-.84c.22.08.56.17.86.17,1.29,0,2.17-1.19,2.71-2.8l.29-.92-4.34-10.76h1.05l2.55,6.64c.35.89.77,2.02,1.15,2.97h.09c.34-.94.68-2.07.98-2.97l2.25-6.64h1l-4.17,11.89c-.59,1.76-1.66,3.48-3.56,3.48-.39,0-.79-.09-1.08-.22Z"/>
    <path d="M321.72,212.72h.82l.11,1.64h.05c.96-1.08,2.16-1.9,3.34-1.9,1.69,0,2.54.85,2.92,2.16,1.2-1.32,2.37-2.16,3.59-2.16,2.1,0,3.16,1.32,3.16,4.05v6.78h-.97v-6.65c0-2.24-.75-3.3-2.37-3.3-.99,0-2,.66-3.16,1.98v7.97h-.97v-6.65c0-2.24-.75-3.3-2.37-3.3-.96,0-2,.66-3.16,1.98v7.97h-.97v-10.57Z"/>
    <path d="M339.58,212.72h.82l.11,1.33h.05c1.03-.83,2.29-1.59,3.59-1.59,2.83,0,4.23,2.12,4.23,5.39,0,3.59-2.17,5.7-4.66,5.7-1,0-2.08-.47-3.18-1.3v1.95s.01,3.87.01,3.87h-.97v-15.35ZM347.35,217.85c0-2.6-.92-4.53-3.36-4.53-1.05,0-2.16.62-3.44,1.74v6.27c1.19.99,2.31,1.36,3.11,1.36,2.15,0,3.69-1.97,3.69-4.84Z"/>
    <path d="M350.66,218.03c0-3.53,2.21-5.57,4.74-5.57s4.74,2.03,4.74,5.57-2.21,5.53-4.74,5.53-4.74-2.03-4.74-5.53ZM359.13,218.03c0-2.78-1.59-4.71-3.72-4.71s-3.72,1.93-3.72,4.71,1.59,4.67,3.72,4.67,3.72-1.89,3.72-4.67Z"/>
    <path d="M361.98,222.09l.56-.71c.89.75,1.85,1.34,3.36,1.34,1.66,0,2.53-.97,2.53-2.09,0-1.33-1.37-1.91-2.59-2.35-1.59-.57-3.37-1.21-3.37-3.02,0-1.52,1.21-2.81,3.41-2.81,1.13,0,2.25.47,3.02,1.1l-.52.7c-.71-.53-1.46-.96-2.52-.96-1.65,0-2.39.95-2.39,1.92,0,1.21,1.25,1.66,2.5,2.14,1.64.62,3.45,1.16,3.45,3.22,0,1.59-1.27,2.98-3.56,2.98-1.57,0-2.93-.66-3.87-1.46Z"/>
    <path d="M371.83,209.31c0-.55.4-.86.88-.86s.88.32.88.86c0,.51-.4.86-.88.86s-.88-.36-.88-.86ZM372.21,212.72h.97v10.57h-.97v-10.57Z"/>
    <path d="M377.08,219.5v-6.78h.97v6.65c0,2.24.71,3.31,2.41,3.31,1.26,0,2.17-.66,3.41-2.16v-7.8h.97v10.57h-.82l-.11-1.77h-.05c-1.04,1.21-2.13,2.03-3.59,2.03-2.18,0-3.2-1.32-3.2-4.05Z"/>
    <path d="M388.88,212.72h.82l.11,1.64h.05c.96-1.08,2.16-1.9,3.34-1.9,1.69,0,2.54.85,2.92,2.16,1.2-1.32,2.37-2.16,3.59-2.16,2.1,0,3.16,1.32,3.16,4.05v6.78h-.97v-6.65c0-2.24-.75-3.3-2.37-3.3-.99,0-2,.66-3.16,1.98v7.97h-.97v-6.65c0-2.24-.75-3.3-2.37-3.3-.96,0-2,.66-3.16,1.98v7.97h-.97v-10.57Z"/>
    <path d="M410.26,218.03c0-3.53,2.21-5.57,4.74-5.57s4.74,2.03,4.74,5.57-2.21,5.53-4.74,5.53-4.74-2.03-4.74-5.53ZM418.72,218.03c0-2.78-1.59-4.71-3.72-4.71s-3.72,1.93-3.72,4.71,1.59,4.67,3.72,4.67,3.72-1.89,3.72-4.67Z"/>
    <path d="M422.92,212.72h.82l.11,1.64h.05c1.08-1.07,2.18-1.9,3.63-1.9,2.18,0,3.19,1.32,3.19,4.05v6.78h-.97v-6.65c0-2.24-.71-3.3-2.41-3.3-1.26,0-2.17.66-3.46,1.98v7.97h-.97v-10.57Z"/>
    <path d="M439.13,208.79h7.9v.87h-6.89v5.78h5.82v.87h-5.82v6.98h-1.01v-14.5Z"/>
    <path d="M448.38,218.03c0-3.53,2.21-5.57,4.74-5.57s4.74,2.03,4.74,5.57-2.21,5.53-4.74,5.53-4.74-2.03-4.74-5.53ZM456.85,218.03c0-2.78-1.59-4.71-3.72-4.71s-3.72,1.93-3.72,4.71,1.59,4.67,3.72,4.67,3.72-1.89,3.72-4.67Z"/>
    <path d="M461.04,212.72h.82l.11,1.97h.05c.71-1.3,1.75-2.24,3-2.24.39,0,.7.05,1.05.22l-.22.88c-.36-.13-.55-.18-.96-.18-.95,0-2.08.72-2.88,2.72v7.19h-.97v-10.57Z"/>
    <path d="M468.02,212.72h.82l.11,1.64h.05c.96-1.08,2.16-1.9,3.34-1.9,1.69,0,2.54.85,2.92,2.16,1.2-1.32,2.37-2.16,3.59-2.16,2.1,0,3.16,1.32,3.16,4.05v6.78h-.97v-6.65c0-2.24-.75-3.3-2.37-3.3-.99,0-2,.66-3.16,1.98v7.97h-.97v-6.65c0-2.24-.75-3.3-2.37-3.3-.96,0-2,.66-3.16,1.98v7.97h-.97v-10.57Z"/>
    <path d="M485.12,220.66c0-2.35,2.12-3.47,6.82-3.99.03-1.62-.41-3.36-2.49-3.36-1.43,0-2.66.7-3.37,1.24l-.45-.72c.75-.53,2.21-1.37,3.93-1.37,2.5,0,3.35,1.82,3.35,4.08v6.75h-.82l-.11-1.37h-.05c-1.08.87-2.36,1.64-3.75,1.64-1.67,0-3.06-.91-3.06-2.89ZM491.94,221.01v-3.6c-4.34.5-5.82,1.51-5.82,3.2,0,1.52,1.03,2.1,2.24,2.1s2.28-.58,3.58-1.7Z"/>
    <path d="M496.68,221.87v-14.41h.97v14.54c0,.47.19.69.46.69.09,0,.18,0,.4-.04l.16.79c-.2.06-.38.11-.7.11-.85,0-1.29-.52-1.29-1.68Z"/>
    <path d="M506.41,208.79h1.43l3.03,8.51c.38,1.07.76,2.15,1.14,3.22h.09c.38-1.07.72-2.15,1.1-3.22l3.02-8.51h1.43v14.5h-.98v-9.53c0-1.17.07-2.7.13-3.92h-.09l-1.13,3.23-3.13,8.63h-.88l-3.15-8.63-1.14-3.23h-.09c.06,1.21.13,2.74.13,3.92v9.53h-.93v-14.5Z"/>
    <path d="M520.94,218.03c0-3.45,2.24-5.57,4.61-5.57,2.5,0,4.04,1.78,4.04,4.89,0,.26,0,.53-.05.79h-7.6c.04,2.67,1.6,4.57,3.98,4.57,1.14,0,2.05-.38,2.84-.94l.4.74c-.83.52-1.78,1.04-3.33,1.04-2.7,0-4.88-2.07-4.88-5.53ZM528.68,217.34c0-2.7-1.22-4.04-3.12-4.04-1.79,0-3.4,1.51-3.62,4.04h6.74Z"/>
    <path d="M532.48,220.37v-6.8h-1.65v-.76l1.67-.09.12-3.06h.83v3.06h3.06v.85h-3.06v6.87c0,1.35.34,2.26,1.79,2.26.39,0,.94-.17,1.32-.33l.26.79c-.61.22-1.29.4-1.73.4-2.03,0-2.62-1.29-2.62-3.18Z"/>
    <path d="M539.1,207.46h.97v4.59l-.02,2.33c1.1-1.1,2.2-1.92,3.66-1.92,2.18,0,3.19,1.32,3.19,4.05v6.78h-.97v-6.65c0-2.24-.71-3.3-2.41-3.3-1.26,0-2.17.66-3.46,1.98v7.97h-.97v-15.83Z"/>
    <path d="M549.83,218.03c0-3.53,2.21-5.57,4.74-5.57s4.74,2.03,4.74,5.57-2.21,5.53-4.74,5.53-4.74-2.03-4.74-5.53ZM558.29,218.03c0-2.78-1.59-4.71-3.72-4.71s-3.72,1.93-3.72,4.71,1.59,4.67,3.72,4.67,3.72-1.89,3.72-4.67Z"/>
    <path d="M561.6,218.03c0-3.41,2.17-5.57,4.69-5.57,1.27,0,2.13.48,3.19,1.3l-.05-1.94v-4.36h.97v15.83h-.82l-.11-1.37h-.05c-.87.87-2.04,1.63-3.45,1.63-2.65,0-4.37-1.96-4.37-5.53ZM569.42,220.95v-6.27c-1.11-.99-2.04-1.36-3.08-1.36-2.1,0-3.72,2.05-3.72,4.7,0,2.81,1.25,4.67,3.49,4.67,1.17,0,2.2-.61,3.31-1.74Z"/>
    <path d="M573.14,222.09l.56-.71c.89.75,1.85,1.34,3.36,1.34,1.66,0,2.53-.97,2.53-2.09,0-1.33-1.37-1.91-2.59-2.35-1.59-.57-3.37-1.21-3.37-3.02,0-1.52,1.21-2.81,3.41-2.81,1.13,0,2.25.47,3.02,1.1l-.52.7c-.71-.53-1.46-.96-2.52-.96-1.65,0-2.39.95-2.39,1.92,0,1.21,1.25,1.66,2.5,2.14,1.64.62,3.45,1.16,3.45,3.22,0,1.59-1.27,2.98-3.56,2.98-1.57,0-2.93-.66-3.87-1.46Z"/>
  </g>
  <line x1="256.97" y1="169.49" x2="256.97" y2="229.06" fill="none" stroke="#0b2a4a" stroke-miterlimit="10" stroke-width=".4"/>
</svg>