<svg id="Livello_1" data-name="Livello 1" xmlns="http://www.w3.org/2000/svg" viewBox="0 0 1305 700">
	<defs>
		<style>.cls-1{font-size:181.33px;}.cls-1,.cls-3{fill:#1c1e23;font-family:Europa-Light;font-weight:300;}.cls-2{letter-spacing:-0.04em;}.cls-3{font-size:86.81px;}.cls-4{fill:#1976d2;}.cls-5{fill:#64b5f6;}.cls-6{fill:#42a5f5;}.cls-7{fill:#2196f3;}.cls-8{fill:#1565c0;}.cls-9{fill:#2281d1;}.cls-10{fill:#1e88e5;}</style>
	</defs>

	<path class="cls-4" d="M447,319.81V296.66h-16.4V265.8H122v30.86h-16.4v23.15H122V474.14H106.07v15.43H122V674.76H233.87V464.92a44.13,44.13,0,0,1-1-9.11,43.41,43.41,0,1,1,85.84,9.11V674.76H430.64V489.57h11.09V474.14H430.64V319.81Z"/><polygon class="cls-5" points="573.6 423.33 573.6 353.88 580.63 353.88 580.63 346.17 573.6 346.17 545.63 346.17 545.63 267.08 524.41 267.08 524.41 209.2 516.69 209.2 516.69 164.84 510.9 164.84 510.9 157.12 503.19 157.12 503.19 139.76 497.4 139.76 497.4 157.12 489.68 157.12 489.68 164.84 483.9 164.84 483.9 209.2 476.18 209.2 476.18 267.08 454.96 267.08 454.96 346.17 426.99 346.17 420.51 346.17 420.51 353.88 426.99 353.88 426.99 423.33 409.63 423.33 409.63 674.11 590.96 674.11 590.96 423.33 573.6 423.33"/><polygon class="cls-6" points="1065.95 59.35 1199.05 171.24 1199.05 674.73 1065.95 674.73 1065.95 59.35"/><polygon class="cls-7" points="811.15 194.74 547.83 431.05 547.83 674.11 1074.47 674.11 1074.47 431.05 811.15 194.74"/><polygon class="cls-7" points="569.05 278.65 572.91 425.29 565.19 425.29 569.05 278.65"/><polygon class="cls-7" points="553.62 278.65 557.48 431.05 549.76 431.05 553.62 278.65"/><polygon class="cls-7" points="725.31 122.4 729.16 278.65 721.45 278.65 725.31 122.4"/><polygon class="cls-7" points="753.1 122.4 756.96 251.89 749.24 251.89 753.1 122.4"/><polygon class="cls-7" points="641.1 200.52 644.95 351.97 637.24 351.97 641.1 200.52"/><line class="cls-7" x1="1053.61" y1="278.57" x2="1053.61" y2="425.21"/><polygon class="cls-7" points="1053.62 278.57 1057.47 425.21 1049.76 425.21 1053.62 278.57"/><line class="cls-7" x1="1069.05" y1="278.57" x2="1069.05" y2="430.97"/><polygon class="cls-7" points="1069.05 278.57 1072.91 430.97 1065.19 430.97 1069.05 278.57"/><line class="cls-7" x1="891.57" y1="122.31" x2="891.57" y2="278.57"/><polygon class="cls-7" points="891.57 122.31 895.43 278.57 887.71 278.57 891.57 122.31"/><line class="cls-7" x1="863.78" y1="122.31" x2="863.78" y2="251.81"/><polygon class="cls-7" points="863.78 122.31 867.64 251.81 859.92 251.81 863.78 122.31"/><line class="cls-7" x1="975.78" y1="200.44" x2="975.78" y2="351.89"/><polygon class="cls-7" points="975.78 200.44 979.64 351.89 971.92 351.89 975.78 200.44"/><polygon class="cls-6" points="420.23 346.17 420.23 353.74 426.7 353.74 426.7 423.18 409.34 423.18 408.47 675.03 498.57 673.96 454.2 346.17 420.23 346.17"/><polygon class="cls-8" points="142.51 265.8 121.9 265.8 121.9 296.66 105.5 296.66 105.5 319.81 121.9 319.81 121.9 474.14 105.98 474.14 105.98 489.57 121.9 489.57 121.9 674.76 233.78 674.76 233.78 476.22 142.51 265.8"/><polygon class="cls-9" points="318.66 671.89 318.66 674.76 319.91 674.76 318.66 671.89"/><polyline class="cls-4" points="1099.19 225.25 1199.5 674.73 1065.95 674.73 1065.95 59.35 1099.19 225.25"/><polygon class="cls-10" points="811.08 195.7 546.79 427.19 546.79 674.11 1054.14 674.11 645.18 434.91 811.08 195.7"/></svg>