<?xml version="1.0" encoding="UTF-8" standalone="no"?>
<!-- Created with Inkscape (http://www.inkscape.org/) -->

<svg
   version="1.1"
   id="svg1"
   width="500.74667"
   height="188.46667"
   viewBox="0 0 500.74667 188.46667"
   sodipodi:docname="Queens-university-logo.eps"
   inkscape:version="1.4 (e7c3feb100, 2024-10-09)"
   xmlns:inkscape="http://www.inkscape.org/namespaces/inkscape"
   xmlns:sodipodi="http://sodipodi.sourceforge.net/DTD/sodipodi-0.dtd"
   xmlns="http://www.w3.org/2000/svg"
   xmlns:svg="http://www.w3.org/2000/svg">
  <defs
     id="defs1" />
  <sodipodi:namedview
     id="namedview1"
     pagecolor="#ffffff"
     bordercolor="#000000"
     borderopacity="0.25"
     inkscape:showpageshadow="2"
     inkscape:pageopacity="0.0"
     inkscape:pagecheckerboard="0"
     inkscape:deskcolor="#d1d1d1"
     inkscape:zoom="0.4613111"
     inkscape:cx="250.37334"
     inkscape:cy="93.212585"
     inkscape:window-width="952"
     inkscape:window-height="1161"
     inkscape:window-x="960"
     inkscape:window-y="0"
     inkscape:window-maximized="1"
     inkscape:current-layer="g1">
    <inkscape:page
       x="0"
       y="0"
       inkscape:label="1"
       id="page1"
       width="500.74667"
       height="188.46667"
       margin="0"
       bleed="0" />
  </sodipodi:namedview>
  <g
     id="g1"
     inkscape:groupmode="layer"
     inkscape:label="1">
    <g
       id="group-R5">
      <path
         id="path2"
         d="m 1942.77,635.98 c 0,-19.16 0.7,-33.339 3.53,-41.246 2.85,-6.328 10.59,-9.187 22.64,-9.855 l 29.09,-2.191 v -21.172 c -17.73,0.672 -38.31,2.07 -58.05,2.07 -20.6,0 -41.09,-1.398 -59.53,-2.07 1.44,19.832 2.86,38.937 2.86,65.16 l -47.46,-43.988 c -19.83,-17.766 -45.31,-27.622 -79.3,-27.622 -99.84,0 -99.84,63.821 -99.84,121.317 v 119.121 c 0,22.691 -1.4,38.266 -4.97,43.926 -4.23,5.656 -11.33,7.789 -26.19,7.789 h -17.34 v 19.832 c 41.78,4.258 75.37,17.765 101.6,29.14 l 6.39,-2.918 V 684.168 c 0,-56.031 12.06,-85.848 77.17,-85.848 46.06,0 89.94,47.461 89.94,81.465 v 115.719 c 0,22.691 -1.42,38.266 -4.95,43.926 -4.29,5.656 -11.36,7.789 -26.25,7.789 h -26.15 v 19.832 c 41.76,4.258 84.23,17.765 110.46,29.14 l 6.35,-2.918 V 635.98"
         style="fill:#b91a32;fill-opacity:1;fill-rule:nonzero;stroke:none"
         transform="matrix(0.13333333,0,0,-0.13333333,0,188.46667)" />
      <path
         id="path3"
         d="m 2168.87,896.359 c -24.08,0 -44.58,-7.843 -69.36,-19.222 -15.57,-7.059 -30.45,-17.703 -43.9,-28.289 -32.59,-25.555 -50.99,-66.684 -50.99,-135.43 0,-95.762 56.67,-163.84 163.56,-163.84 48.2,0 108.31,31.211 113.3,39.668 l 14.11,24.152 -9.18,7.055 c -26.92,-16.242 -53.8,-33.277 -87.76,-33.277 -87.12,0 -128.17,56.64 -128.17,139.629 h 103.36 c 42.54,0 85.65,2.855 128.19,9.914 1.35,9.98 1.35,19.894 1.35,29.812 0,80.125 -57.29,129.828 -134.51,129.828 m -3.49,-23.421 c 51,0 75,-53.907 75,-119.915 -50.96,-2.8 -110.46,-4.199 -168.46,2.192 -3.57,77.324 38.94,117.723 93.46,117.723"
         style="fill:#b91a32;fill-opacity:1;fill-rule:nonzero;stroke:none"
         transform="matrix(0.13333333,0,0,-0.13333333,0,188.46667)" />
      <path
         id="path4"
         d="m 2503.19,896.504 c -24.09,0 -44.57,-7.848 -69.45,-19.223 -15.54,-7.058 -30.42,-17.703 -43.86,-28.289 -32.64,-25.554 -51.02,-66.679 -51.02,-135.429 0,-95.758 56.64,-163.84 163.54,-163.84 48.24,0 108.35,31.211 113.34,39.668 l 14.23,24.156 -9.18,7.051 c -27.01,-16.243 -53.9,-33.274 -87.91,-33.274 -87.06,0 -128.1,56.637 -128.1,139.625 h 103.28 c 42.58,0 85.72,2.86 128.18,9.914 1.47,9.981 1.47,19.895 1.47,29.813 0,80.125 -57.38,129.828 -134.52,129.828 m -3.47,-23.422 c 50.92,0 75.02,-53.902 75.02,-119.91 -50.99,-2.805 -110.52,-4.203 -168.59,2.187 -3.53,77.329 38.94,117.723 93.57,117.723"
         style="fill:#b91a32;fill-opacity:1;fill-rule:nonzero;stroke:none"
         transform="matrix(0.13333333,0,0,-0.13333333,0,188.46667)" />
      <path
         id="path5"
         d="m 2780.72,636.371 c 0,-19.164 0.67,-33.344 3.47,-41.25 2.86,-6.324 10.59,-9.187 22.69,-9.855 l 31.79,-2.192 v -21.172 c -24.76,0.672 -53.05,2.071 -87.7,2.071 -34.77,0 -63.09,-1.399 -87.76,-2.071 v 21.172 l 31.79,2.192 c 12.01,0.668 19.8,3.531 22.69,9.855 2.8,7.906 3.56,22.086 3.56,41.25 v 159.52 c 0,22.691 -1.46,38.265 -5.05,43.925 -4.19,5.657 -11.31,7.789 -26.16,7.789 h -26.28 v 19.833 c 41.89,4.257 84.26,17.765 110.48,29.14 l 6.48,-2.918 v -60.289 h 1.37 l 52.38,45.442 c 15.64,13.449 28.96,17.765 57.31,17.765 82.93,0 116.87,-46.113 116.87,-123.383 V 636.371 c 0,-19.164 0.67,-33.344 3.53,-41.25 2.86,-6.324 10.65,-9.187 22.7,-9.855 l 29.02,-2.192 v -21.172 c -17.71,0.672 -38.33,2.071 -58.11,2.071 -19.77,0 -40.33,-1.399 -56.57,-2.071 v 201.317 c 0,58.894 -33.34,90.043 -81.53,90.043 -43.14,0 -86.97,-37.598 -86.97,-66.617 V 636.371"
         style="fill:#b91a32;fill-opacity:1;fill-rule:nonzero;stroke:none"
         transform="matrix(0.13333333,0,0,-0.13333333,0,188.46667)" />
      <path
         id="path6"
         d="m 3115.92,854.898 c -7.43,-21.593 -19.53,-45.14 -28.9,-62.601 l -27.68,-22.938 -8.03,4.688 c 9.37,25.551 14.11,41.066 19.46,67.406 5.42,23.485 7.49,49.102 8.1,63.945 10.15,2.735 16.18,6.024 25.61,10.161 9.37,4.011 15.39,8.699 24.27,14.113 l 6.7,-5.414 c -5.35,-27.563 -12.11,-47.82 -19.53,-69.36"
         style="fill:#b91a32;fill-opacity:1;fill-rule:nonzero;stroke:none"
         transform="matrix(0.13333333,0,0,-0.13333333,0,188.46667)" />
      <path
         id="path7"
         d="m 3182.27,665.348 v -29.082 c 0,-43.989 50.25,-60.289 91.37,-60.289 44.6,0 82.75,26.097 82.75,64.484 0,22.695 -11.99,41.191 -33.89,46.789 -31.27,7.906 -70.15,15.633 -104.22,28.352 -33.89,12.777 -60.11,34.066 -60.11,77.324 0,76.597 66.56,103.609 133.06,103.609 33.4,0 63.82,-7.847 91.38,-17.762 -2.13,-25.617 -2.8,-51.777 -3.53,-80.187 h -19.78 v 16.363 c 0,36.809 -41.79,58.106 -82.19,58.106 -60.17,0 -69.35,-33.34 -69.35,-57.438 0,-30.48 23.3,-46.844 77.14,-56.031 84.26,-14.176 123.93,-35.469 123.93,-90.711 0,-78.059 -77.87,-119.184 -156.48,-119.184 -34.07,0 -64.43,4.926 -99.11,17.036 7.06,31.211 7.73,65.281 7.73,98.621 h 21.3"
         style="fill:#b91a32;fill-opacity:1;fill-rule:nonzero;stroke:none"
         transform="matrix(0.13333333,0,0,-0.13333333,0,188.46667)" />
      <path
         id="path8"
         d="m 1124.76,796.754 c -7.06,103.766 32.63,230.206 162.47,239.466 143.35,10.67 211.44,-91.017 217.81,-194.716 8.52,-131.383 -35.48,-245.078 -151.84,-265.016 -136.92,-22.738 -219.95,96.629 -228.44,220.266 m 17.56,-374.059 c 0,0 16.13,19.907 27.44,32.981 13,15.008 33.35,25.933 48.26,32.804 23.41,10.79 53.69,7.243 70.17,5.594 18.53,-1.851 38.3,-6.34 57.36,-11.414 17.84,-4.754 79.7,-22.484 97.15,-28.59 26.29,-9.199 142.43,-45.468 177.77,-55.058 26.23,-7.121 59.81,-16.711 86.15,-23.364 25.93,-6.539 52.02,-12.488 78.23,-17.777 15.18,-3.062 32.98,-6.609 48.43,-7.91 27.98,-2.371 47.79,-4.949 74.98,-1.652 26.64,3.23 44.18,7.972 64.28,16.48 21.42,9.063 48.62,31.481 47.79,31.481 -0.82,0 51.92,79.105 52.62,79.878 0.98,1.075 -16.73,10.168 -16.73,10.168 -11.96,-17.55 -23.38,-31.386 -44.13,-44.726 -13.81,-8.879 -24.27,-13.531 -46.97,-21.426 -22.41,-7.793 -35.19,-9.605 -65.78,-10.594 -32.17,-1.039 -64.28,2.301 -95.72,8.879 -42.43,8.887 -99.4,22.828 -120.85,27.946 -22.84,5.449 -96.64,26.984 -122.28,34.597 -13.23,3.93 -50.77,15.305 -63.92,19.504 -18.03,5.754 -34.55,10.109 -52.61,15.742 -14.81,4.621 -29.64,9.164 -44.54,13.422 -10.54,3.012 -21.17,5.715 -31.85,8.149 -12.19,2.777 -24.49,5.105 -36.74,7.625 -1.72,0.351 -3.44,0.679 -5.17,1.019 -0.02,0.215 -0.04,0.434 -0.06,0.649 11.96,0.636 22.87,1.91 37.56,3.781 141.16,18.472 224.21,140.707 215,290.621 -8.56,143.57 -122.78,233.856 -291.67,224.596 -144.68,-7.81 -244.07,-133.58 -236.25,-274.955 7.79,-140.036 115.68,-236.665 241.24,-245.262 l 5.32,-0.332 c 0,-0.133 -1.76,-0.871 -3.17,-0.977 -13.6,-0.996 -38.12,-3.363 -57.19,-10.699 -25.65,-9.867 -51.97,-29.605 -52.33,-29.582 -0.37,0.02 -58.03,-69.551 -58.03,-69.551 l 16.24,-12.047"
         style="fill:#b91a32;fill-opacity:1;fill-rule:nonzero;stroke:none"
         transform="matrix(0.13333333,0,0,-0.13333333,0,188.46667)" />
      <path
         id="path9"
         d="m 2198.7,364.461 c -31.8,0 -51.25,17.758 -51.25,52.602 v 67.66 h 26.04 v -66.985 c 0,-19.277 9.64,-29.258 25.54,-29.258 15.9,0 25.55,9.641 25.55,28.415 v 67.828 h 26.04 V 417.91 c 0,-35.859 -20.12,-53.449 -51.92,-53.449"
         style="fill:#b91a32;fill-opacity:1;fill-rule:nonzero;stroke:none"
         transform="matrix(0.13333333,0,0,-0.13333333,0,188.46667)" />
      <path
         id="path10"
         d="m 2380.53,366.32 -57.34,75.27 v -75.27 h -25.71 v 118.403 h 24.02 l 55.47,-72.903 v 72.903 h 25.71 V 366.32 h -22.15"
         style="fill:#b91a32;fill-opacity:1;fill-rule:nonzero;stroke:none"
         transform="matrix(0.13333333,0,0,-0.13333333,0,188.46667)" />
      <path
         id="path11"
         d="m 2452.58,366.32 h 26.05 v 118.403 h -26.05 V 366.32"
         style="fill:#b91a32;fill-opacity:1;fill-rule:nonzero;stroke:none"
         transform="matrix(0.13333333,0,0,-0.13333333,0,188.46667)" />
      <path
         id="path12"
         d="m 2589.25,365.469 h -23.01 l -47.86,119.254 h 28.75 l 30.96,-83.395 30.95,83.395 h 28.08 l -47.87,-119.254"
         style="fill:#b91a32;fill-opacity:1;fill-rule:nonzero;stroke:none"
         transform="matrix(0.13333333,0,0,-0.13333333,0,188.46667)" />
      <path
         id="path13"
         d="m 2675.68,366.32 v 118.403 h 89.31 v -23.172 h -63.43 v -24.02 h 55.82 v -23.172 h -55.82 v -24.871 h 64.27 V 366.32 h -90.15"
         style="fill:#b91a32;fill-opacity:1;fill-rule:nonzero;stroke:none"
         transform="matrix(0.13333333,0,0,-0.13333333,0,188.46667)" />
      <path
         id="path14"
         d="m 2881.7,444.297 c 0,11.164 -7.78,16.914 -20.47,16.914 h -25.88 v -34 h 26.39 c 12.69,0 19.96,6.769 19.96,16.746 z m -0.51,-77.977 -25.37,37.891 h -20.47 V 366.32 h -26.04 v 118.403 h 54.12 c 27.91,0 44.66,-14.715 44.66,-39.075 v -0.335 c 0,-19.114 -10.32,-31.125 -25.38,-36.704 l 28.93,-42.289 h -30.45"
         style="fill:#b91a32;fill-opacity:1;fill-rule:nonzero;stroke:none"
         transform="matrix(0.13333333,0,0,-0.13333333,0,188.46667)" />
      <path
         id="path15"
         d="m 2994.01,364.629 c -17.93,0 -36.03,6.262 -50.24,18.941 l 15.4,18.442 c 10.65,-8.793 21.82,-14.383 35.35,-14.383 10.65,0 17.08,4.23 17.08,11.172 v 0.328 c 0,6.601 -4.06,9.98 -23.85,15.059 -23.85,6.089 -39.24,12.687 -39.24,36.199 v 0.336 c 0,21.484 17.25,35.687 41.44,35.687 17.25,0 31.97,-5.41 43.98,-15.051 l -13.54,-19.621 c -10.48,7.274 -20.8,11.672 -30.78,11.672 -9.98,0 -15.22,-4.566 -15.22,-10.316 v -0.34 c 0,-7.781 5.07,-10.32 25.54,-15.563 24.02,-6.257 37.55,-14.882 37.55,-35.519 v -0.344 c 0,-23.508 -17.93,-36.699 -43.47,-36.699"
         style="fill:#b91a32;fill-opacity:1;fill-rule:nonzero;stroke:none"
         transform="matrix(0.13333333,0,0,-0.13333333,0,188.46667)" />
      <path
         id="path16"
         d="m 3081.63,366.32 h 26.05 v 118.403 h -26.05 V 366.32"
         style="fill:#b91a32;fill-opacity:1;fill-rule:nonzero;stroke:none"
         transform="matrix(0.13333333,0,0,-0.13333333,0,188.46667)" />
      <path
         id="path17"
         d="M 3211.19,460.703 V 366.32 h -26.05 v 94.383 h -36.03 v 24.02 h 98.11 v -24.02 h -36.03"
         style="fill:#b91a32;fill-opacity:1;fill-rule:nonzero;stroke:none"
         transform="matrix(0.13333333,0,0,-0.13333333,0,188.46667)" />
      <path
         id="path18"
         d="M 3346.84,413.512 V 366.32 h -26.05 v 46.692 l -45.49,71.711 h 30.44 l 28.25,-47.532 28.75,47.532 h 29.6 l -45.5,-71.211"
         style="fill:#b91a32;fill-opacity:1;fill-rule:nonzero;stroke:none"
         transform="matrix(0.13333333,0,0,-0.13333333,0,188.46667)" />
      <path
         id="path19"
         d="m 622.852,362.648 v 0 z m 2.308,-15.91 -2.308,0.711 c -3.649,1.102 -90.168,28.11 -169.422,114.977 -73.785,80.887 -106.692,169.156 -106.692,286.199 V 1066.75 H 903.555 V 748.625 c 0,-117.07 -32.891,-205.34 -106.649,-286.199 C 717.625,375.559 631.113,348.551 627.469,347.449 l -2.309,-0.711"
         style="fill:#100f0d;fill-opacity:1;fill-rule:nonzero;stroke:none"
         transform="matrix(0.13333333,0,0,-0.13333333,0,188.46667)" />
      <path
         id="path20"
         d="m 625.16,354.16 c 0,0 -87.164,26.481 -165.863,112.731 -78.692,86.273 -104.609,175.566 -104.609,280.843 0,150.379 0,106.071 0,311.066 h 540.921 c 0,-204.995 0,-160.687 0,-311.066 0,-105.277 -25.879,-194.57 -104.574,-280.843 C 712.316,380.641 625.16,354.16 625.16,354.16"
         style="fill:#b91a32;fill-opacity:1;fill-rule:nonzero;stroke:none"
         transform="matrix(0.13333333,0,0,-0.13333333,0,188.46667)" />
      <path
         id="path21"
         d="m 441.242,972.133 c 0,-90.477 0,-90.496 0,-239.567 0,-67.011 21.723,-130.601 59.387,-179.011 71.078,-91.387 124.523,-102.258 124.523,-102.258 0,0 53.434,10.871 124.512,102.258 37.664,48.41 59.387,112 59.387,179.011 0,149.071 0,149.09 0,239.567 H 441.242"
         style="fill:#100f0d;fill-opacity:1;fill-rule:nonzero;stroke:none"
         transform="matrix(0.13333333,0,0,-0.13333333,0,188.46667)" />
      <path
         id="path22"
         d="M 742.328,964.305 H 507.965 L 625.148,812.313 Z"
         style="fill:#f5b70b;fill-opacity:1;fill-rule:nonzero;stroke:none"
         transform="matrix(0.13333333,0,0,-0.13333333,0,188.46667)" />
      <path
         id="path23"
         d="M 449.07,907.637 V 732.566 c 0,-41.179 8.375,-81.285 24.114,-117.363 L 573.852,745.781 449.07,907.637"
         style="fill:#f5b70b;fill-opacity:1;fill-rule:nonzero;stroke:none"
         transform="matrix(0.13333333,0,0,-0.13333333,0,188.46667)" />
      <path
         id="path24"
         d="m 519.684,542.453 c 55.004,-65.258 96.921,-80.504 105.472,-83.062 8.469,2.531 50.403,17.75 105.453,83.062 L 625.148,679.246 519.684,542.453"
         style="fill:#f5b70b;fill-opacity:1;fill-rule:nonzero;stroke:none"
         transform="matrix(0.13333333,0,0,-0.13333333,0,188.46667)" />
      <path
         id="path25"
         d="M 801.227,907.637 676.441,745.781 777.109,615.203 c 15.743,36.078 24.118,76.184 24.118,117.363 v 175.071"
         style="fill:#f5b70b;fill-opacity:1;fill-rule:nonzero;stroke:none"
         transform="matrix(0.13333333,0,0,-0.13333333,0,188.46667)" />
      <path
         id="path26"
         d="m 801.227,920.457 v 43.848 H 752.211 L 625.148,799.496 498.086,964.305 H 449.07 V 920.453 L 583.734,745.781 476.848,607.137 c 8.265,-17.403 18.289,-33.778 29.957,-48.778 2.613,-3.355 5.195,-6.593 7.758,-9.73 L 625.148,692.066 735.734,548.629 c 2.559,3.137 5.145,6.375 7.754,9.73 11.668,15 21.696,31.375 29.961,48.774 l -106.89,138.648 134.668,174.676"
         style="fill:#1c284c;fill-opacity:1;fill-rule:nonzero;stroke:none"
         transform="matrix(0.13333333,0,0,-0.13333333,0,188.46667)" />
      <path
         id="path27"
         d="m 751.703,741.895 c 0.336,0.281 0.531,0.371 0.535,0.394 0.582,-0.137 2.071,-1.437 3.055,-2.301 3.16,-2.761 7.934,-6.933 15.633,-6.933 8.183,0 11.957,5.226 14.453,8.683 0.812,1.125 1.582,2.192 2.309,2.848 0.71,0.641 1.601,1.168 2.457,1.68 1.793,1.062 4.25,2.519 4.39,5.511 0.145,2.95 -2.199,5.078 -4.492,6.754 -1.113,0.828 -3.145,3.004 -4.355,4.305 l -0.34,0.363 c -4.039,4.289 -9.157,6.746 -14.047,6.746 -0.012,0 -0.024,0 -0.031,0 -3.692,-0.007 -7.055,-1.433 -9.473,-4.023 -4.758,-5.133 -7.434,-5.375 -7.902,-5.168 -0.184,0.09 -0.36,0.519 -0.352,0.937 0.32,0.649 1.555,2.137 2.469,3.239 3.968,4.781 9.968,12.008 7.547,21.187 -2.176,8.223 -5.989,14.141 -11.329,17.578 -0.867,0.563 -1.367,1.301 -1.945,2.157 -0.957,1.425 -2.566,3.816 -5.941,3.816 -3.356,0 -4.957,-2.387 -5.91,-3.813 -0.579,-0.863 -1.079,-1.605 -1.926,-2.156 -5.367,-3.457 -9.192,-9.371 -11.363,-17.586 -2.415,-9.164 3.578,-16.383 7.543,-21.164 0.914,-1.101 2.148,-2.59 2.468,-3.238 0.016,-0.477 -0.179,-0.883 -0.34,-0.957 -0.457,-0.219 -3.132,0.035 -7.906,5.168 -2.394,2.578 -5.738,4.008 -9.422,4.023 -0.019,0 -0.043,0 -0.058,0 -4.891,0 -10.004,-2.453 -14.043,-6.734 l -0.715,-0.758 c -1.188,-1.262 -2.984,-3.168 -3.992,-3.91 -2.305,-1.691 -4.641,-3.813 -4.496,-6.762 0.144,-2.992 2.597,-4.449 4.386,-5.511 0.864,-0.512 1.75,-1.04 2.453,-1.676 0.719,-0.653 1.485,-1.711 2.293,-2.832 2.504,-3.465 6.286,-8.707 14.465,-8.707 7.727,0 12.504,4.183 15.664,6.949 0.996,0.871 2.496,2.184 2.926,2.297 0,0 0.195,-0.059 0.598,-0.395 0.179,-0.152 0.109,-0.129 0.242,-0.203 0.269,-0.281 0.926,-1.281 -0.094,-3.633 -2.957,-6.836 -3.562,-16.109 -1.414,-21.558 1.383,-3.551 1.281,-10.485 0.395,-14.871 -0.157,-0.766 -0.328,-1.539 -0.496,-2.309 -1.012,-4.586 -2.055,-9.332 -0.215,-13.445 0.777,-1.696 3.136,-6.852 8.906,-6.852 h 0.148 c 5.793,0 8.122,5.172 8.883,6.86 1.86,4.082 0.809,8.812 -0.203,13.382 -0.176,0.789 -0.351,1.578 -0.504,2.348 -0.875,4.438 -0.969,11.387 0.414,14.891 2.133,5.488 1.528,14.754 -1.414,21.554 -1.023,2.356 -0.39,3.36 -0.125,3.649 0.117,0.062 0.039,0.035 0.211,0.176"
         style="fill:#100f0d;fill-opacity:1;fill-rule:nonzero;stroke:none"
         transform="matrix(0.13333333,0,0,-0.13333333,0,188.46667)" />
      <path
         id="path28"
         d="m 587.129,875.145 c 0.258,-1.512 1.379,-2.731 2.867,-3.11 1.922,-0.484 3.789,-0.699 5.469,-0.758 0.515,-1.23 1.629,-2.117 2.957,-2.332 2.668,-0.425 10.973,-1.648 20.555,-1.972 -0.633,-20.641 -2.961,-26.586 -3.446,-27.606 -1.336,-1.351 -1.101,-3.105 0.086,-4.644 l 6.602,-8.551 c 0.73,-0.949 1.859,-1.504 3.058,-1.504 v 0 c 1.2,0 2.332,0.555 3.067,1.504 l 6.578,8.535 c 1.195,1.551 1.418,3.34 0.051,4.684 -0.496,1.015 -2.899,6.953 -3.59,27.586 9.613,0.328 17.867,1.543 20.527,1.968 1.328,0.215 2.445,1.102 2.957,2.332 1.684,0.059 3.551,0.274 5.473,0.758 1.484,0.379 2.609,1.598 2.863,3.11 0.16,0.949 -0.043,1.906 -0.535,2.691 0.602,0.594 1.004,1.375 1.121,2.238 0.195,1.461 -0.457,2.91 -1.68,3.731 -4.121,2.761 -8.129,7.617 -10.859,11.355 0.586,0.113 1.164,0.246 1.715,0.399 1.332,0.371 2.363,1.421 2.711,2.761 0.34,1.344 -0.059,2.766 -1.047,3.731 -2.938,2.863 -7.027,8.262 -9.914,12.242 0.793,0.441 1.422,1.156 1.75,2.039 0.492,1.328 0.219,2.824 -0.719,3.895 -1.078,1.226 -3.109,4.273 -4.926,7.109 0.657,0.461 1.172,1.121 1.446,1.91 0.5,1.442 0.101,3.043 -1.012,4.086 -3.301,3.098 -5.684,6.383 -7.207,8.805 0.316,0.426 0.551,0.914 0.676,1.445 0.297,1.277 -0.075,2.617 -0.985,3.563 -1.875,1.941 -3.539,4.199 -5.234,7.097 -0.691,1.184 -1.961,1.914 -3.336,1.914 -1.375,0 -2.645,-0.73 -3.34,-1.914 -1.695,-2.898 -3.355,-5.152 -5.234,-7.097 -0.91,-0.946 -1.281,-2.286 -0.985,-3.567 0.125,-0.527 0.36,-1.019 0.676,-1.441 -1.519,-2.426 -3.902,-5.711 -7.207,-8.805 -1.113,-1.043 -1.508,-2.644 -1.008,-4.086 0.274,-0.789 0.785,-1.449 1.446,-1.906 -1.817,-2.836 -3.848,-5.887 -4.926,-7.113 -0.938,-1.071 -1.211,-2.563 -0.719,-3.895 0.324,-0.883 0.953,-1.598 1.75,-2.039 -2.891,-3.984 -6.98,-9.379 -9.914,-12.242 -0.992,-0.965 -1.391,-2.387 -1.047,-3.731 0.344,-1.34 1.379,-2.39 2.711,-2.761 0.551,-0.153 1.125,-0.286 1.711,-0.399 -2.727,-3.738 -6.734,-8.594 -10.855,-11.355 -1.227,-0.821 -1.875,-2.27 -1.68,-3.731 0.117,-0.863 0.519,-1.644 1.117,-2.238 -0.492,-0.785 -0.695,-1.738 -0.535,-2.691"
         style="fill:#100f0d;fill-opacity:1;fill-rule:nonzero;stroke:none"
         transform="matrix(0.13333333,0,0,-0.13333333,0,188.46667)" />
      <path
         id="path29"
         d="m 373.801,995.766 c 0.078,-2.504 1.398,-6.188 24.168,-6.188 22.765,0 24.09,3.684 24.164,6.188 3.066,13.634 8.656,30.444 11.578,34.764 0.852,1.26 0.883,2.9 0.086,4.2 -0.801,1.29 -2.285,1.99 -3.793,1.8 -3.781,-0.5 -7.66,-2.64 -9.34,-6.37 -0.465,-0.06 -0.926,-0.18 -1.383,-0.34 -2.66,-0.94 -4.547,-3.39 -4.808,-6.22 -0.141,-1.55 0.703,-3.02 2.035,-3.76 -0.063,-0.57 -0.324,-1.61 -1.012,-2.96 -0.758,-1.48 -3.613,-2.7 -6.504,-2.08 -2.801,0.61 -4.074,1.92 -4.39,4.54 -0.122,0.98 -0.043,1.81 0.078,2.34 0.113,-0.05 0.242,-0.12 0.39,-0.21 1.102,-0.64 2.442,-0.7 3.59,-0.16 1.153,0.55 1.965,1.62 2.172,2.87 0.621,3.73 -0.957,7.49 -3.93,9.35 -0.804,0.51 -1.672,0.85 -2.57,1.02 -0.461,3.31 -2.309,5.99 -3.703,7.32 -1.492,1.41 -3.832,1.41 -5.324,0 -1.395,-1.33 -3.242,-4.01 -3.703,-7.32 -0.899,-0.17 -1.762,-0.51 -2.571,-1.02 -2.972,-1.86 -4.551,-5.62 -3.929,-9.35 0.207,-1.25 1.019,-2.32 2.171,-2.87 1.149,-0.54 2.489,-0.48 3.59,0.16 0.149,0.09 0.278,0.16 0.395,0.21 0.121,-0.53 0.195,-1.36 0.078,-2.34 -0.32,-2.62 -1.594,-3.93 -4.395,-4.54 -2.89,-0.62 -5.746,0.6 -6.5,2.08 -0.687,1.34 -0.953,2.38 -1.015,2.95 1.359,0.72 2.179,2.2 2.035,3.77 -0.262,2.83 -2.148,5.28 -4.809,6.22 -0.457,0.16 -0.918,0.28 -1.382,0.34 -1.68,3.73 -5.559,5.87 -9.34,6.37 -1.516,0.2 -2.992,-0.51 -3.793,-1.8 -0.797,-1.3 -0.766,-2.94 0.086,-4.2 2.922,-4.32 8.511,-21.13 11.578,-34.764"
         style="fill:#100f0d;fill-opacity:1;fill-rule:nonzero;stroke:none"
         transform="matrix(0.13333333,0,0,-0.13333333,0,188.46667)" />
      <path
         id="path30"
         d="m 600.98,995.766 c 0.079,-2.504 1.399,-6.188 24.168,-6.188 22.766,0 24.086,3.684 24.165,6.188 3.07,13.634 8.66,30.444 11.578,34.764 0.851,1.26 0.886,2.9 0.086,4.2 -0.797,1.29 -2.293,1.99 -3.789,1.8 -3.782,-0.5 -7.665,-2.64 -9.344,-6.37 -0.461,-0.07 -0.926,-0.18 -1.379,-0.34 -2.66,-0.94 -4.551,-3.39 -4.813,-6.22 -0.14,-1.54 0.703,-3.02 2.036,-3.76 -0.059,-0.57 -0.325,-1.61 -1.008,-2.96 -0.762,-1.48 -3.617,-2.7 -6.508,-2.08 -2.801,0.61 -4.074,1.92 -4.395,4.54 -0.117,0.98 -0.039,1.81 0.082,2.34 0.114,-0.05 0.243,-0.12 0.391,-0.21 1.098,-0.64 2.441,-0.7 3.59,-0.16 1.152,0.55 1.965,1.62 2.172,2.87 0.621,3.73 -0.957,7.49 -3.93,9.35 -0.805,0.51 -1.672,0.85 -2.57,1.02 -0.457,3.31 -2.309,5.99 -3.703,7.32 -1.493,1.41 -3.832,1.41 -5.325,0 -1.394,-1.33 -3.242,-4.01 -3.703,-7.32 -0.898,-0.17 -1.761,-0.51 -2.57,-1.02 -2.973,-1.86 -4.551,-5.62 -3.93,-9.35 0.207,-1.25 1.02,-2.32 2.172,-2.87 1.149,-0.54 2.488,-0.48 3.59,0.16 0.148,0.09 0.277,0.16 0.395,0.21 0.121,-0.53 0.195,-1.36 0.078,-2.34 -0.321,-2.62 -1.594,-3.93 -4.395,-4.54 -2.891,-0.62 -5.746,0.6 -6.5,2.08 -0.687,1.34 -0.949,2.38 -1.016,2.95 1.36,0.72 2.18,2.2 2.036,3.77 -0.262,2.83 -2.149,5.28 -4.809,6.22 -0.457,0.16 -0.918,0.28 -1.383,0.34 -1.679,3.73 -5.558,5.87 -9.34,6.37 -1.515,0.2 -2.992,-0.51 -3.793,-1.8 -0.796,-1.3 -0.765,-2.94 0.086,-4.2 2.922,-4.32 8.512,-21.13 11.578,-34.764"
         style="fill:#100f0d;fill-opacity:1;fill-rule:nonzero;stroke:none"
         transform="matrix(0.13333333,0,0,-0.13333333,0,188.46667)" />
      <path
         id="path31"
         d="m 657.184,432.727 c -3.914,-0.512 -7.743,-2.637 -9.375,-6.375 -0.454,-0.067 -0.903,-0.176 -1.344,-0.332 -2.66,-0.946 -4.551,-3.387 -4.813,-6.223 -0.14,-1.539 0.703,-3.016 2.036,-3.754 -0.059,-0.57 -0.325,-1.613 -1.008,-2.965 -0.766,-1.476 -3.617,-2.707 -6.508,-2.078 -2.801,0.609 -4.074,1.922 -4.395,4.535 -0.117,0.985 -0.039,1.809 0.082,2.348 0.114,-0.059 0.243,-0.125 0.391,-0.211 1.098,-0.641 2.441,-0.703 3.59,-0.16 1.152,0.539 1.965,1.609 2.172,2.863 0.621,3.734 -0.957,7.492 -3.93,9.359 -0.809,0.504 -1.672,0.84 -2.57,1.016 -0.457,3.313 -2.309,5.992 -3.703,7.316 -1.493,1.414 -3.829,1.414 -5.325,0 -1.394,-1.324 -3.242,-4.003 -3.703,-7.316 -0.898,-0.176 -1.761,-0.512 -2.57,-1.016 -2.973,-1.867 -4.551,-5.625 -3.93,-9.359 0.207,-1.254 1.02,-2.324 2.172,-2.863 1.149,-0.539 2.492,-0.481 3.59,0.16 0.148,0.086 0.277,0.152 0.395,0.211 0.121,-0.539 0.195,-1.363 0.078,-2.348 -0.321,-2.613 -1.594,-3.926 -4.395,-4.535 -2.883,-0.629 -5.742,0.602 -6.5,2.07 -0.687,1.348 -0.949,2.387 -1.016,2.961 1.36,0.719 2.18,2.196 2.036,3.766 -0.262,2.836 -2.149,5.277 -4.809,6.223 -0.441,0.156 -0.894,0.265 -1.344,0.332 -1.636,3.738 -5.465,5.863 -9.379,6.375 -1.515,0.199 -2.992,-0.508 -3.789,-1.801 -0.8,-1.293 -0.769,-2.938 0.082,-4.199 2.922,-4.325 8.512,-21.125 11.578,-34.766 0.079,-2.5 1.399,-6.18 24.168,-6.18 22.766,0 24.086,3.68 24.165,6.18 3.066,13.641 8.656,30.441 11.578,34.766 0.851,1.261 0.886,2.906 0.086,4.199 -0.801,1.293 -2.293,2.004 -3.793,1.801"
         style="fill:#100f0d;fill-opacity:1;fill-rule:nonzero;stroke:none"
         transform="matrix(0.13333333,0,0,-0.13333333,0,188.46667)" />
      <path
         id="path32"
         d="m 828.16,995.766 c 0.078,-2.504 1.399,-6.188 24.168,-6.188 22.766,0 24.09,3.684 24.164,6.188 3.071,13.644 8.656,30.444 11.578,34.764 0.852,1.26 0.883,2.9 0.086,4.2 -0.801,1.29 -2.293,1.99 -3.793,1.8 -3.777,-0.5 -7.66,-2.64 -9.34,-6.37 -0.464,-0.07 -0.925,-0.18 -1.378,-0.34 -2.665,-0.94 -4.551,-3.39 -4.809,-6.22 -0.145,-1.55 0.699,-3.02 2.031,-3.76 -0.058,-0.57 -0.324,-1.61 -1.008,-2.96 -0.765,-1.48 -3.617,-2.7 -6.507,-2.08 -2.801,0.61 -4.075,1.92 -4.391,4.54 -0.117,0.98 -0.043,1.81 0.078,2.34 0.113,-0.05 0.242,-0.12 0.391,-0.21 1.101,-0.64 2.445,-0.7 3.593,-0.16 1.149,0.55 1.961,1.62 2.168,2.87 0.625,3.73 -0.957,7.49 -3.929,9.35 -0.805,0.51 -1.672,0.85 -2.571,1.02 -0.457,3.31 -2.308,5.99 -3.703,7.32 -1.492,1.41 -3.828,1.41 -5.32,0 -1.395,-1.33 -3.246,-4.01 -3.703,-7.32 -0.902,-0.17 -1.766,-0.51 -2.574,-1.02 -2.973,-1.86 -4.551,-5.62 -3.93,-9.35 0.211,-1.25 1.019,-2.32 2.172,-2.87 1.148,-0.54 2.492,-0.48 3.59,0.16 0.148,0.09 0.281,0.16 0.39,0.21 0.121,-0.53 0.2,-1.36 0.082,-2.34 -0.32,-2.62 -1.593,-3.93 -4.394,-4.54 -2.891,-0.62 -5.742,0.6 -6.5,2.08 -0.688,1.34 -0.949,2.38 -1.016,2.95 1.36,0.72 2.18,2.2 2.035,3.77 -0.261,2.83 -2.148,5.28 -4.808,6.22 -0.457,0.16 -0.918,0.27 -1.383,0.34 -1.68,3.73 -5.559,5.87 -9.34,6.37 -1.492,0.19 -2.992,-0.51 -3.789,-1.8 -0.801,-1.3 -0.77,-2.94 0.086,-4.2 2.918,-4.32 8.508,-21.12 11.574,-34.764"
         style="fill:#100f0d;fill-opacity:1;fill-rule:nonzero;stroke:none"
         transform="matrix(0.13333333,0,0,-0.13333333,0,188.46667)" />
      <path
         id="path33"
         d="m 422.133,748.816 c 3.066,13.641 8.656,30.442 11.578,34.766 0.852,1.262 0.883,2.902 0.086,4.199 -0.801,1.293 -2.285,1.996 -3.793,1.801 -3.781,-0.496 -7.66,-2.641 -9.34,-6.371 -0.465,-0.063 -0.926,-0.176 -1.383,-0.336 -2.66,-0.945 -4.547,-3.387 -4.808,-6.223 -0.141,-1.543 0.703,-3.015 2.035,-3.754 -0.063,-0.574 -0.324,-1.613 -1.012,-2.96 -0.758,-1.489 -3.613,-2.708 -6.504,-2.083 -2.801,0.606 -4.074,1.918 -4.39,4.532 -0.122,0.984 -0.043,1.812 0.078,2.351 0.113,-0.054 0.242,-0.125 0.39,-0.211 1.102,-0.64 2.442,-0.703 3.59,-0.16 1.153,0.539 1.965,1.61 2.172,2.863 0.621,3.731 -0.957,7.493 -3.93,9.356 -0.804,0.508 -1.672,0.844 -2.57,1.016 -0.457,3.316 -2.309,5.996 -3.703,7.32 -1.492,1.414 -3.832,1.414 -5.324,0 -1.395,-1.324 -3.246,-4.004 -3.703,-7.32 -0.899,-0.172 -1.762,-0.508 -2.571,-1.016 -2.972,-1.863 -4.551,-5.625 -3.929,-9.356 0.207,-1.253 1.019,-2.324 2.171,-2.863 1.149,-0.543 2.489,-0.48 3.59,0.16 0.149,0.086 0.278,0.157 0.395,0.211 0.121,-0.539 0.195,-1.363 0.078,-2.347 -0.32,-2.618 -1.594,-3.93 -4.395,-4.536 -2.89,-0.625 -5.746,0.594 -6.5,2.075 -0.687,1.343 -0.953,2.383 -1.015,2.953 1.359,0.722 2.179,2.199 2.035,3.769 -0.262,2.836 -2.148,5.278 -4.809,6.223 -0.457,0.16 -0.918,0.273 -1.382,0.336 -1.68,3.73 -5.559,5.875 -9.34,6.371 -1.508,0.195 -2.992,-0.508 -3.793,-1.801 -0.797,-1.297 -0.766,-2.937 0.086,-4.199 2.922,-4.324 8.511,-21.125 11.578,-34.766 0.078,-2.5 1.398,-6.187 24.168,-6.187 22.765,0 24.09,3.687 24.164,6.187"
         style="fill:#100f0d;fill-opacity:1;fill-rule:nonzero;stroke:none"
         transform="matrix(0.13333333,0,0,-0.13333333,0,188.46667)" />
      <path
         id="path34"
         d="m 884.363,789.582 c -3.777,-0.496 -7.66,-2.641 -9.34,-6.371 -0.46,-0.063 -0.925,-0.176 -1.378,-0.336 -2.665,-0.945 -4.551,-3.387 -4.809,-6.223 -0.145,-1.543 0.699,-3.015 2.031,-3.754 -0.058,-0.574 -0.324,-1.613 -1.008,-2.96 -0.765,-1.489 -3.617,-2.704 -6.507,-2.083 -2.801,0.606 -4.075,1.918 -4.391,4.536 -0.117,0.98 -0.043,1.808 0.078,2.347 0.113,-0.058 0.242,-0.125 0.391,-0.211 1.101,-0.64 2.445,-0.703 3.593,-0.16 1.149,0.539 1.961,1.61 2.168,2.863 0.625,3.731 -0.957,7.493 -3.929,9.356 -0.805,0.508 -1.672,0.844 -2.571,1.016 -0.457,3.316 -2.308,5.996 -3.703,7.32 -1.492,1.414 -3.828,1.414 -5.32,0 -1.395,-1.324 -3.246,-4.004 -3.703,-7.32 -0.902,-0.172 -1.766,-0.508 -2.574,-1.016 -2.973,-1.863 -4.551,-5.625 -3.93,-9.356 0.211,-1.253 1.019,-2.324 2.172,-2.863 1.148,-0.543 2.492,-0.48 3.59,0.16 0.148,0.086 0.281,0.153 0.39,0.211 0.121,-0.539 0.2,-1.367 0.082,-2.347 -0.32,-2.618 -1.593,-3.93 -4.394,-4.536 -2.887,-0.628 -5.742,0.594 -6.5,2.075 -0.684,1.343 -0.949,2.383 -1.016,2.953 1.36,0.722 2.18,2.199 2.035,3.769 -0.261,2.836 -2.148,5.278 -4.808,6.223 -0.457,0.16 -0.918,0.273 -1.383,0.336 -1.68,3.73 -5.559,5.875 -9.336,6.371 -1.508,0.191 -2.996,-0.508 -3.793,-1.801 -0.801,-1.297 -0.77,-2.937 0.086,-4.199 2.918,-4.32 8.508,-21.125 11.574,-34.766 0.078,-2.5 1.399,-6.187 24.168,-6.187 22.766,0 24.09,3.687 24.164,6.187 3.071,13.641 8.656,30.446 11.578,34.766 0.852,1.262 0.883,2.902 0.086,4.199 -0.801,1.293 -2.285,1.992 -3.793,1.801"
         style="fill:#100f0d;fill-opacity:1;fill-rule:nonzero;stroke:none"
         transform="matrix(0.13333333,0,0,-0.13333333,0,188.46667)" />
      <path
         id="path35"
         d="m 481.348,565.395 c -3.782,-0.497 -7.66,-2.641 -9.34,-6.368 -0.465,-0.062 -0.93,-0.179 -1.383,-0.339 -2.66,-0.946 -4.551,-3.387 -4.809,-6.223 -0.14,-1.543 0.7,-3.016 2.036,-3.754 -0.063,-0.57 -0.325,-1.613 -1.012,-2.961 -0.762,-1.488 -3.621,-2.707 -6.504,-2.082 -2.805,0.605 -4.074,1.918 -4.395,4.535 -0.117,0.981 -0.043,1.813 0.079,2.348 0.113,-0.055 0.246,-0.125 0.394,-0.211 1.098,-0.637 2.438,-0.699 3.59,-0.16 1.148,0.539 1.961,1.613 2.172,2.867 0.621,3.726 -0.957,7.488 -3.934,9.351 -0.804,0.508 -1.672,0.844 -2.57,1.02 -0.457,3.312 -2.309,5.992 -3.703,7.316 -1.492,1.414 -3.828,1.414 -5.321,0 -1.394,-1.324 -3.246,-4.004 -3.703,-7.316 -0.898,-0.176 -1.765,-0.512 -2.57,-1.02 -2.973,-1.863 -4.555,-5.621 -3.934,-9.351 0.211,-1.254 1.024,-2.324 2.172,-2.867 1.149,-0.539 2.492,-0.477 3.59,0.16 0.149,0.086 0.281,0.156 0.395,0.211 0.121,-0.535 0.199,-1.363 0.078,-2.348 -0.321,-2.617 -1.59,-3.93 -4.395,-4.535 -2.879,-0.625 -5.742,0.598 -6.5,2.074 -0.683,1.344 -0.949,2.383 -1.011,2.953 1.355,0.723 2.175,2.2 2.031,3.77 -0.258,2.836 -2.149,5.277 -4.809,6.223 -0.457,0.16 -0.918,0.277 -1.379,0.339 -1.683,3.727 -5.562,5.871 -9.343,6.368 -1.516,0.203 -2.993,-0.508 -3.79,-1.801 -0.8,-1.293 -0.765,-2.938 0.086,-4.199 2.918,-4.325 8.508,-21.125 11.575,-34.762 0.078,-2.504 1.398,-6.192 24.168,-6.192 22.765,0 24.089,3.688 24.168,6.192 3.066,13.637 8.656,30.441 11.578,34.762 0.847,1.261 0.883,2.906 0.082,4.199 -0.797,1.293 -2.274,2.008 -3.789,1.801"
         style="fill:#100f0d;fill-opacity:1;fill-rule:nonzero;stroke:none"
         transform="matrix(0.13333333,0,0,-0.13333333,0,188.46667)" />
      <path
         id="path36"
         d="m 833.023,565.395 c -3.781,-0.497 -7.66,-2.641 -9.339,-6.368 -0.465,-0.062 -0.926,-0.179 -1.383,-0.339 -2.66,-0.946 -4.547,-3.387 -4.809,-6.223 -0.14,-1.543 0.703,-3.016 2.035,-3.754 -0.062,-0.57 -0.324,-1.613 -1.011,-2.961 -0.762,-1.484 -3.618,-2.707 -6.504,-2.082 -2.801,0.605 -4.074,1.918 -4.395,4.535 -0.117,0.981 -0.043,1.813 0.078,2.348 0.114,-0.055 0.246,-0.125 0.395,-0.211 1.098,-0.641 2.441,-0.699 3.59,-0.16 1.148,0.539 1.961,1.613 2.172,2.867 0.621,3.726 -0.957,7.488 -3.93,9.351 -0.809,0.508 -1.676,0.844 -2.57,1.02 -0.461,3.312 -2.313,5.992 -3.704,7.316 -1.496,1.414 -3.832,1.414 -5.324,0 -1.394,-1.324 -3.246,-4.004 -3.703,-7.316 -0.898,-0.176 -1.766,-0.512 -2.57,-1.02 -2.973,-1.863 -4.555,-5.625 -3.934,-9.351 0.211,-1.254 1.024,-2.328 2.172,-2.867 1.149,-0.539 2.488,-0.481 3.59,0.16 0.148,0.086 0.281,0.156 0.394,0.211 0.122,-0.535 0.2,-1.363 0.079,-2.344 -0.321,-2.621 -1.594,-3.934 -4.391,-4.539 -2.891,-0.625 -5.746,0.598 -6.504,2.074 -0.684,1.344 -0.949,2.383 -1.012,2.953 1.356,0.723 2.18,2.2 2.035,3.77 -0.261,2.836 -2.152,5.277 -4.812,6.223 -0.453,0.164 -0.918,0.277 -1.379,0.339 -1.684,3.727 -5.562,5.871 -9.344,6.368 -1.488,0.195 -2.988,-0.508 -3.789,-1.801 -0.801,-1.293 -0.765,-2.938 0.086,-4.199 2.922,-4.325 8.512,-21.125 11.574,-34.762 0.079,-2.504 1.399,-6.192 24.168,-6.192 22.766,0 24.09,3.688 24.168,6.192 3.067,13.64 8.657,30.441 11.578,34.762 0.852,1.261 0.883,2.902 0.086,4.199 -0.8,1.293 -2.293,2 -3.793,1.801"
         style="fill:#100f0d;fill-opacity:1;fill-rule:nonzero;stroke:none"
         transform="matrix(0.13333333,0,0,-0.13333333,0,188.46667)" />
      <path
         id="path37"
         d="m 704.508,545.707 c -4.766,0.203 -10.621,1.223 -11.469,4.898 -0.066,0.301 -0.098,0.606 -0.098,0.907 0,1.828 1.262,4.105 3.375,6.093 0.864,0.813 1.305,1.973 1.204,3.153 -0.102,1.18 -0.739,2.246 -1.731,2.898 -4.984,3.274 -10.871,9.348 -17.027,17.563 -0.918,1.226 -2.473,1.789 -3.977,1.445 -1.492,-0.351 -2.637,-1.551 -2.918,-3.059 -1.258,-6.781 -5.176,-19.156 -17.262,-25.875 -1.164,-0.644 -1.914,-1.847 -1.98,-3.179 -0.07,-1.328 0.551,-2.602 1.641,-3.367 3.593,-2.516 4.683,-5.262 5.019,-6.704 0.172,-0.707 0.254,-1.429 0.254,-2.21 0,-3.09 -1.441,-6.137 -4.059,-8.582 -2.378,-2.227 -5.535,-3.567 -8.882,-3.77 -1.055,-0.066 -2.035,-0.555 -2.715,-1.359 -0.684,-0.805 -1.004,-1.852 -0.899,-2.903 0.063,-0.59 0.094,-1.195 0.094,-1.789 0,-7.367 -4.965,-13.297 -9.062,-16.922 l -0.067,-0.047 c -0.004,0 -0.578,-0.222 -1.179,0.188 -1.29,0.879 -1.606,1.738 -1.606,4.402 l -0.012,4.535 c -0.015,1.422 -0.015,2.793 -0.015,4.09 l 0.027,49.582 c 5.066,0.61 9.66,2.418 13.215,5.25 5.199,4.141 7.949,10.145 7.953,17.36 0,9.246 -5.437,15.84 -12.723,19.496 0.039,0.101 0.094,0.195 0.129,0.301 l 8.496,26.66 c 0.567,1.777 -0.218,3.711 -1.867,4.586 -6.113,3.254 -13.445,4.972 -21.199,4.972 -7.758,0 -15.086,-1.718 -21.199,-4.972 -1.649,-0.875 -2.438,-2.809 -1.867,-4.586 l 8.496,-26.66 c 0.031,-0.106 0.086,-0.2 0.129,-0.301 -7.286,-3.656 -12.723,-10.25 -12.723,-19.496 0,-7.215 2.75,-13.219 7.949,-17.364 3.555,-2.824 8.145,-4.636 13.207,-5.246 l 0.028,-50.89 c 0,-0.887 0,-1.856 -0.012,-2.91 l -0.016,-4.415 c 0,-2.621 -0.332,-3.523 -1.597,-4.39 -0.598,-0.406 -1.157,-0.203 -1.161,-0.203 v 0 l -0.05,0.019 c -4.164,3.688 -9.118,9.614 -9.118,16.961 0,0.516 0.032,1.086 0.106,1.797 0.105,1.047 -0.219,2.094 -0.899,2.895 -0.683,0.804 -1.664,1.293 -2.714,1.359 -3.348,0.203 -6.508,1.543 -8.895,3.77 -2.613,2.449 -4.051,5.496 -4.051,8.582 0,0.777 0.082,1.5 0.266,2.242 0.328,1.41 1.418,4.156 5.012,6.672 1.089,0.765 1.711,2.039 1.64,3.367 -0.066,1.332 -0.816,2.535 -1.98,3.179 -12.086,6.715 -16,19.094 -17.262,25.875 -0.277,1.508 -1.426,2.708 -2.922,3.059 -1.492,0.352 -3.051,-0.219 -3.972,-1.445 -6.161,-8.223 -12.051,-14.293 -17.032,-17.563 -0.988,-0.648 -1.625,-1.718 -1.726,-2.898 -0.106,-1.18 0.34,-2.34 1.203,-3.153 2.113,-1.984 3.375,-4.265 3.375,-6.093 0,-0.301 -0.031,-0.571 -0.102,-0.867 -0.855,-3.715 -6.707,-4.735 -11.461,-4.938 -1.472,-0.062 -2.781,-0.957 -3.375,-2.305 -0.593,-1.347 -0.371,-2.918 0.575,-4.047 4.902,-5.835 8.726,-12.828 9.984,-18.25 0.48,-2.07 2.547,-3.367 4.617,-2.894 4.957,1.121 10.742,0.148 15.09,-2.539 4.414,-2.731 7.047,-6.77 7.824,-12.004 0.164,-1.121 0.813,-2.109 1.77,-2.711 0.961,-0.598 2.129,-0.75 3.211,-0.414 7.32,2.293 15.054,-1.094 19.007,-3.313 7.415,-4.191 13.563,-15.48 14.622,-26.843 0.136,-1.473 1.105,-2.739 2.488,-3.262 l 2.172,-0.816 c 0.437,-0.164 0.902,-0.246 1.363,-0.246 0.484,0 0.969,0.089 1.43,0.273 l 2.211,0.879 c 1.308,0.519 2.234,1.715 2.41,3.109 1.515,12.063 7.844,23.461 15.379,27.719 5.644,3.176 12.328,4.055 18.332,2.41 1.07,-0.297 2.215,-0.113 3.14,0.496 0.93,0.61 1.551,1.586 1.707,2.684 0.758,5.25 3.387,9.301 7.817,12.035 4.363,2.691 10.148,3.664 15.105,2.543 2.082,-0.477 4.141,0.824 4.621,2.898 1.254,5.414 5.078,12.407 9.985,18.246 0.945,1.129 1.168,2.7 0.574,4.047 -0.594,1.348 -1.902,2.243 -3.371,2.305"
         style="fill:#100f0d;fill-opacity:1;fill-rule:nonzero;stroke:none"
         transform="matrix(0.13333333,0,0,-0.13333333,0,188.46667)" />
      <path
         id="path38"
         d="m 660.418,775.305 -6.664,3.879 c -0.637,0.371 -1.344,0.554 -2.102,0.523 l -1.515,-0.062 c -2.27,0.019 -6.446,0.523 -7.973,1.296 -3.238,1.633 -6.391,2.481 -9.371,2.516 -3.16,0.016 -5.699,-0.703 -7.594,-1.566 -1.832,0.828 -4.289,1.539 -7.375,1.554 -0.125,0.004 -0.25,0.004 -0.301,0.004 -0.074,0.004 -0.265,0.004 -0.343,0 -0.16,-0.004 -0.317,-0.019 -0.469,-0.043 -2.723,-0.176 -5.57,-1.004 -8.477,-2.465 -1.527,-0.773 -5.789,-1.289 -8.004,-1.296 l -1.546,0.062 c -0.739,0.031 -1.469,-0.152 -2.106,-0.523 l -6.664,-3.879 c -1.187,-0.696 -1.918,-1.965 -1.918,-3.344 v -60.91 c 0,-1.16 0.52,-2.258 1.414,-2.992 0.899,-0.735 2.082,-1.032 3.215,-0.797 l 32.543,6.547 32.543,-6.547 c 0.254,-0.051 0.508,-0.078 0.762,-0.078 0.886,0 1.754,0.304 2.449,0.875 0.898,0.734 1.418,1.832 1.418,2.992 v 60.91 c 0,1.379 -0.731,2.648 -1.922,3.344"
         style="fill:#100f0d;fill-opacity:1;fill-rule:nonzero;stroke:none"
         transform="matrix(0.13333333,0,0,-0.13333333,0,188.46667)" />
      <path
         id="path39"
         d="m 541.367,735.492 c -0.754,0.801 -1.847,1.238 -2.914,1.211 -0.68,-0.019 -16.769,-0.535 -25.297,-7.277 v 0 c -4.988,-3.946 -7.527,-9.16 -8.832,-13.586 -0.015,-0.043 -0.035,-0.082 -0.047,-0.129 -0.257,-0.981 -0.863,-1.516 -2.507,-2.574 -0.192,0.863 -0.266,1.828 -0.297,3.058 -0.071,2.77 0.297,4.754 1.507,8.16 0.426,1.204 0.235,2.543 -0.519,3.575 -1.211,1.656 -1.535,3.066 -1.594,3.953 -0.047,0.707 0.348,1.801 0.949,3.222 0.426,1.004 0.407,2.145 -0.054,3.133 -0.672,1.453 -0.821,3.028 -0.824,4.227 2.527,0.629 4.667,1.633 6.339,3.004 0.868,-1.008 1.938,-1.903 3.184,-2.563 1.191,-0.636 2.418,-0.953 3.582,-0.953 1.234,0 2.402,0.356 3.383,1.067 1.898,1.386 2.742,3.847 2.254,6.57 -0.246,1.398 -0.766,2.695 -1.465,3.836 3.289,2.082 5.957,5.929 7.664,11.207 1.699,5.23 1.816,9.875 0.414,13.469 1.215,0.511 2.383,1.257 3.391,2.226 1.996,1.93 2.754,4.414 2.031,6.649 -0.727,2.234 -2.797,3.8 -5.559,4.191 -1.386,0.191 -2.761,0.094 -4.047,-0.207 -0.961,3.773 -3.793,7.5 -8.281,10.758 -4.476,3.261 -8.887,4.801 -12.758,4.554 -0.113,1.305 -0.445,2.633 -1.05,3.883 -1.211,2.504 -3.34,4 -5.692,4.004 -0.004,0 -0.008,0 -0.008,0 -2.355,0 -4.484,-1.488 -5.707,-3.996 -0.605,-1.246 -0.937,-2.574 -1.05,-3.875 -3.868,0.227 -8.274,-1.32 -12.747,-4.566 -4.488,-3.266 -7.32,-6.993 -8.277,-10.754 -1.293,0.304 -2.68,0.402 -4.074,0.211 -2.75,-0.387 -4.82,-1.953 -5.547,-4.188 -0.727,-2.234 0.031,-4.719 2.039,-6.664 1.012,-0.969 2.18,-1.715 3.398,-2.226 -1.398,-3.602 -1.277,-8.25 0.422,-13.481 1.707,-5.258 4.364,-9.09 7.633,-11.164 -0.699,-1.144 -1.23,-2.445 -1.484,-3.852 -0.481,-2.734 0.367,-5.191 2.265,-6.57 0.977,-0.715 2.145,-1.074 3.383,-1.074 1.164,0 2.395,0.316 3.594,0.949 1.242,0.672 2.312,1.57 3.176,2.582 2.289,-1.883 5.461,-3.086 9.293,-3.554 0.109,-1.907 0.07,-4.633 -1.102,-6.848 -0.551,-1.043 -0.594,-2.281 -0.117,-3.363 0.609,-1.391 1.008,-2.59 0.965,-3.907 -0.059,-1.64 -0.153,-1.918 -1.25,-3.711 -0.703,-1.144 -0.766,-2.566 -0.16,-3.765 1.39,-2.754 1.941,-5.328 1.996,-6.824 0.019,-0.469 0.023,-0.926 0.023,-1.368 -1.73,1.661 -3.332,3.356 -3.844,4.571 0,0.004 -0.003,0.007 -0.003,0.011 -1.567,4.336 -4.04,9.102 -7.95,12.696 h 0.004 c -9.457,8.703 -19.953,8.414 -20.394,8.41 -1.063,-0.008 -1.727,-0.317 -2.414,-0.813 -0.797,-0.578 -1.153,-1.496 -1.282,-2.539 -0.093,-0.754 -2.347,-18.535 7.512,-27.699 5.219,-4.851 13.02,-5.789 18.274,-5.789 0.093,0 0.179,0.004 0.269,0.004 4.652,-0.488 8.313,-2.668 9.676,-4.84 0.023,-0.086 0.047,-0.156 0.07,-0.242 0.531,-1.715 0.238,-2.949 -1.312,-5.496 -0.918,-1.512 -0.696,-3.457 0.547,-4.719 2.511,-2.555 3.945,-6.269 6.113,-11.887 0.711,-1.843 1.488,-3.859 2.398,-6.082 0.524,-1.277 1.688,-2.179 3.055,-2.367 0.176,-0.019 0.352,-0.035 0.523,-0.035 1.188,0 2.317,0.547 3.055,1.5 l 3.57,4.602 c 0.879,1.128 1.063,2.656 0.469,3.96 -1.91,4.227 -2.59,8.18 -2.59,10.286 0,0.949 0.121,1.863 0.375,2.871 0.344,1.363 -0.082,2.808 -1.109,3.773 -2.102,1.957 -3.02,3.457 -3.461,5.629 -0.066,1.676 0.238,4.414 8.543,4.93 0.082,0.004 0.152,0.023 0.23,0.031 3.981,0.152 9.918,1.039 16.793,4.25 12.547,5.859 14.239,24.555 14.305,25.348 0.09,1.097 -0.289,2.179 -1.047,2.976"
         style="fill:#100f0d;fill-opacity:1;fill-rule:nonzero;stroke:none"
         transform="matrix(0.13333333,0,0,-0.13333333,0,188.46667)" />
      <path
         id="path40"
         d="m 467.164,783.719 c -0.5,1.047 -0.809,2.164 -0.934,3.332 -0.968,0.32 -2.097,0.457 -3.226,0.301 -2.656,-0.375 -3.309,-2.356 -1.375,-4.231 0.82,-0.781 1.809,-1.332 2.781,-1.644 0.801,0.906 1.711,1.675 2.754,2.242"
         style="fill:#6a932c;fill-opacity:1;fill-rule:nonzero;stroke:none"
         transform="matrix(0.13333333,0,0,-0.13333333,0,188.46667)" />
      <path
         id="path41"
         d="m 476.176,751.703 c -0.707,0 -1.418,0.098 -2.125,0.246 -0.621,-0.828 -1.113,-1.879 -1.317,-3.011 -0.468,-2.657 1.219,-3.879 3.602,-2.622 1.004,0.539 1.84,1.317 2.437,2.153 -0.613,1.043 -1.039,2.16 -1.253,3.336 -0.45,-0.059 -0.895,-0.102 -1.344,-0.102"
         style="fill:#6a932c;fill-opacity:1;fill-rule:nonzero;stroke:none"
         transform="matrix(0.13333333,0,0,-0.13333333,0,188.46667)" />
      <path
         id="path42"
         d="m 511.094,751.77 c -0.211,-1.168 -0.637,-2.286 -1.246,-3.325 0.597,-0.828 1.429,-1.597 2.433,-2.129 2.379,-1.269 4.067,-0.046 3.59,2.606 -0.199,1.133 -0.68,2.172 -1.293,3 -0.715,-0.152 -1.43,-0.25 -2.144,-0.25 -0.45,0 -0.895,0.039 -1.34,0.098"
         style="fill:#6a932c;fill-opacity:1;fill-rule:nonzero;stroke:none"
         transform="matrix(0.13333333,0,0,-0.13333333,0,188.46667)" />
      <path
         id="path43"
         d="m 524.227,781.469 c 0.968,0.308 1.957,0.859 2.769,1.64 1.942,1.875 1.285,3.852 -1.371,4.231 -1.113,0.152 -2.234,0.019 -3.199,-0.293 -0.121,-1.18 -0.43,-2.313 -0.934,-3.367 1.035,-0.563 1.938,-1.321 2.735,-2.211"
         style="fill:#6a932c;fill-opacity:1;fill-rule:nonzero;stroke:none"
         transform="matrix(0.13333333,0,0,-0.13333333,0,188.46667)" />
      <path
         id="path44"
         d="m 497.25,805.363 c -0.004,1.008 -0.227,2.102 -0.715,3.11 -1.172,2.429 -3.258,2.429 -4.441,0 -0.485,-0.993 -0.703,-2.075 -0.711,-3.075 1.109,-0.48 2.113,-1.132 2.976,-1.953 0.84,0.801 1.817,1.438 2.891,1.918"
         style="fill:#6a932c;fill-opacity:1;fill-rule:nonzero;stroke:none"
         transform="matrix(0.13333333,0,0,-0.13333333,0,188.46667)" />
      <path
         id="path45"
         d="m 662.199,726.133 v 31.492"
         style="fill:#100f0d;fill-opacity:1;fill-rule:evenodd;stroke:none"
         transform="matrix(0.13333333,0,0,-0.13333333,0,188.46667)" />
      <path
         id="path46"
         d="M 588.199,759.488 V 723.98"
         style="fill:#100f0d;fill-opacity:1;fill-rule:evenodd;stroke:none"
         transform="matrix(0.13333333,0,0,-0.13333333,0,188.46667)" />
      <path
         id="path47"
         d="m 474.117,781.852 c 1.613,4.707 4.395,7.625 7.879,8.234 0.367,0.059 0.793,0.098 1.285,0.098 0.141,0.429 0.289,0.843 0.453,1.156 1.649,3.125 5.286,4.859 10.274,4.922 -1.613,7.14 -8.598,8.371 -16.918,2.332 -8.297,-6.031 -9.277,-13.031 -2.973,-16.742"
         style="fill:#b91a32;fill-opacity:1;fill-rule:nonzero;stroke:none"
         transform="matrix(0.13333333,0,0,-0.13333333,0,188.46667)" />
      <path
         id="path48"
         d="m 476.008,766.773 c 0,0.364 0.023,0.731 0.086,1.094 0.051,0.352 0.148,0.778 0.289,1.219 -0.375,0.277 -0.703,0.555 -0.957,0.82 -1.547,1.598 -2.34,3.778 -2.34,6.367 0,1.512 0.277,3.161 0.816,4.899 -7.285,0.68 -10.621,-5.59 -7.449,-15.356 3.172,-9.753 9.539,-12.839 15.027,-7.968 -3.558,2.668 -5.472,5.789 -5.472,8.925"
         style="fill:#b91a32;fill-opacity:1;fill-rule:nonzero;stroke:none"
         transform="matrix(0.13333333,0,0,-0.13333333,0,188.46667)" />
      <path
         id="path49"
         d="m 504.93,791.328 c 0.168,-0.312 0.316,-0.73 0.468,-1.172 0.481,0.016 0.918,-0.039 1.282,-0.097 3.476,-0.606 6.258,-3.539 7.871,-8.27 6.289,3.738 5.308,10.774 -2.996,16.805 -8.285,6.027 -15.246,4.793 -16.832,-2.332 4.933,-0.086 8.558,-1.824 10.207,-4.934"
         style="fill:#b91a32;fill-opacity:1;fill-rule:nonzero;stroke:none"
         transform="matrix(0.13333333,0,0,-0.13333333,0,188.46667)" />
      <path
         id="path50"
         d="m 514.762,781.105 c 0.531,-1.722 0.793,-3.343 0.793,-4.832 0,-2.589 -0.778,-4.781 -2.34,-6.378 -0.25,-0.266 -0.578,-0.543 -0.973,-0.832 0.153,-0.442 0.254,-0.868 0.305,-1.219 0.051,-0.367 0.074,-0.731 0.074,-1.098 0,-3.137 -1.926,-6.258 -5.5,-8.937 5.5,-4.871 11.906,-1.774 15.082,8.019 3.168,9.754 -0.168,15.985 -7.441,15.277"
         style="fill:#b91a32;fill-opacity:1;fill-rule:nonzero;stroke:none"
         transform="matrix(0.13333333,0,0,-0.13333333,0,188.46667)" />
      <path
         id="path51"
         d="m 495.391,755.395 c -0.328,0.16 -0.703,0.386 -1.082,0.668 -0.379,-0.282 -0.758,-0.508 -1.082,-0.668 -3.161,-1.551 -7.125,-0.832 -11.18,2.023 -2.93,-6.73 2.004,-11.855 12.285,-11.855 10.27,0 15.168,5.109 12.223,11.832 -4.051,-2.832 -8.004,-3.551 -11.164,-2"
         style="fill:#b91a32;fill-opacity:1;fill-rule:nonzero;stroke:none"
         transform="matrix(0.13333333,0,0,-0.13333333,0,188.46667)" />
      <path
         id="path52"
         d="m 486.023,774.84 c 0,4.582 3.731,8.297 8.297,8.297 4.582,0 8.297,-3.715 8.297,-8.297 0,-4.582 -3.715,-8.293 -8.297,-8.293 -4.566,0 -8.297,3.711 -8.297,8.293 z m 8.27,17.383 c -6.77,0 -9.59,-3.778 -6.406,-8.422 l -0.012,-0.012 c -3.461,4.469 -7.93,2.934 -10.031,-3.523 -2.09,-6.457 0.617,-10.313 6.027,-8.711 l 0.016,-0.012 c -5.324,-1.902 -5.25,-6.637 0.25,-10.625 5.476,-3.977 9.968,-2.59 10.133,3.035 0,0 0.011,0 0.023,0 0.18,-5.64 4.684,-7.023 10.187,-3.035 5.473,3.977 5.536,8.687 0.239,10.586 l 0.011,0.016 c 5.415,-1.579 8.122,2.289 6.028,8.746 -2.102,6.445 -6.543,7.953 -9.992,3.5 l -0.012,0.011 c 3.172,4.668 0.324,8.446 -6.461,8.446"
         style="fill:#b91a32;fill-opacity:1;fill-rule:nonzero;stroke:none"
         transform="matrix(0.13333333,0,0,-0.13333333,0,188.46667)" />
      <path
         id="path53"
         d="m 625.168,640.453 c -7.098,0 -13.895,-1.598 -19.383,-4.519 l 8.496,-26.661 c 6.582,2.481 15.188,2.481 21.774,0 l 8.496,26.661 c -5.488,2.921 -12.285,4.519 -19.383,4.519"
         style="fill:#59458b;fill-opacity:1;fill-rule:nonzero;stroke:none"
         transform="matrix(0.13333333,0,0,-0.13333333,0,188.46667)" />
      <path
         id="path54"
         d="m 744.293,682.902 c -2.168,0 -3.828,1.184 -5.391,4.594 -1.558,3.484 0,8.524 0.985,13.379 0.98,4.848 1.156,12.582 -0.582,17.039 -1.758,4.469 -1.157,12.805 1.363,18.617 2.516,5.813 -1.211,8.332 -1.211,8.332 -6.445,5.426 -9.113,-7.941 -21.676,-7.941 -8.582,0 -10.484,7.199 -14.16,10.535 -3.687,3.336 -8.937,3.363 -2.656,7.969 1.523,1.117 3.765,3.586 5.226,5.121 5.875,6.23 13.68,7.273 17.883,2.746 10.348,-11.129 15.512,-5.438 14.903,-0.906 -0.528,3.851 -12.911,12.047 -10.094,22.742 2.14,8.082 5.793,12.789 9.719,15.32 3.273,2.129 3.324,5.352 5.742,5.352 2.465,0 2.488,-3.223 5.789,-5.352 3.926,-2.531 7.551,-7.238 9.691,-15.32 2.821,-10.695 -9.543,-18.891 -10.097,-22.742 -0.602,-4.532 4.586,-10.223 14.906,0.906 4.226,4.527 12.035,3.484 17.898,-2.746 1.438,-1.535 3.703,-4.004 5.211,-5.121 6.293,-4.606 1.059,-4.633 -2.644,-7.969 -3.7,-3.336 -5.563,-10.535 -14.172,-10.535 -12.535,0 -15.203,13.367 -21.699,7.941 0,0 -3.676,-2.519 -1.161,-8.332 2.52,-5.812 3.098,-14.148 1.36,-18.617 -1.762,-4.457 -1.559,-12.191 -0.602,-17.039 0.981,-4.855 2.567,-9.895 0.981,-13.379 -1.535,-3.41 -3.223,-4.594 -5.364,-4.594 h -0.148"
         style="fill:#6a932c;fill-opacity:1;fill-rule:nonzero;stroke:none"
         transform="matrix(0.13333333,0,0,-0.13333333,0,188.46667)" />
      <path
         id="path55"
         d="m 627.398,778.191 c 2.782,1.75 7.235,2.219 13.024,-0.703 2.566,-1.297 7.922,-1.711 9.832,-1.711 0,-7.3 0,-43.464 0,-53.168 -2.606,0.227 -7.715,2.086 -9.934,3.207 -5.562,2.809 -9.828,2.493 -12.922,0.918 v 51.457"
         style="fill:#f5b70b;fill-opacity:1;fill-rule:evenodd;stroke:none"
         transform="matrix(0.13333333,0,0,-0.13333333,0,188.46667)" />
      <path
         id="path56"
         d="m 600.156,775.777 c 1.914,0 7.25,0.414 9.821,1.711 5.8,2.922 10.257,2.453 13.027,0.703 v -51.457 c -3.098,1.575 -7.363,1.891 -12.914,-0.918 -2.219,-1.121 -7.34,-2.98 -9.934,-3.207 0,9.704 0,45.868 0,53.168"
         style="fill:#f5b70b;fill-opacity:1;fill-rule:evenodd;stroke:none"
         transform="matrix(0.13333333,0,0,-0.13333333,0,188.46667)" />
      <path
         id="path57"
         d="m 654.367,774.379 4.184,-2.418 V 714.84 l -4.184,4.422 v 55.117"
         style="fill:#f5b70b;fill-opacity:1;fill-rule:evenodd;stroke:none"
         transform="matrix(0.13333333,0,0,-0.13333333,0,188.46667)" />
      <path
         id="path58"
         d="m 591.859,771.961 4.184,2.418 v -55.117 l -4.184,-4.422 v 57.121"
         style="fill:#f5b70b;fill-opacity:1;fill-rule:evenodd;stroke:none"
         transform="matrix(0.13333333,0,0,-0.13333333,0,188.46667)" />
      <path
         id="path59"
         d="m 625.168,720.215 v -2.461 l -30.754,-6.188 6.723,7.164 c 2.429,0.153 6.722,1.813 8.761,2.844 5.036,2.531 12.438,3.778 15.27,-1.359"
         style="fill:#f5b70b;fill-opacity:1;fill-rule:evenodd;stroke:none"
         transform="matrix(0.13333333,0,0,-0.13333333,0,188.46667)" />
      <path
         id="path60"
         d="m 625.168,720.215 v -2.461 l 30.75,-6.188 -6.719,7.164 c -2.429,0.153 -6.722,1.813 -8.761,2.844 -5.036,2.531 -12.442,3.778 -15.27,-1.359"
         style="fill:#f5b70b;fill-opacity:1;fill-rule:evenodd;stroke:none"
         transform="matrix(0.13333333,0,0,-0.13333333,0,188.46667)" />
      <path
         id="path61"
         d="m 627.309,569.336 c 10.894,-0.004 21.156,6.035 21.156,18.969 0,12.828 -12.508,18.976 -23.297,18.98 -10.793,-0.004 -23.297,-6.152 -23.297,-18.98 0,-12.934 10.262,-18.973 21.156,-18.969 0,-11.383 0,-28.602 0,-28.602 l 0.028,-25.929 c 0,-0.903 0,-1.887 -0.016,-2.918 l -0.012,-4.407 c 0,-2.945 -0.351,-5.578 -3.297,-7.593 -1.71,-1.157 -3.601,-1.055 -4.792,-0.578 l -0.622,0.254 -0.503,0.429 c -4.758,4.199 -10.446,11.137 -10.446,19.875 0,0.731 0.051,1.461 0.125,2.192 -4.129,0.25 -8.144,1.859 -11.304,4.804 -3.411,3.2 -5.274,7.278 -5.274,11.407 0,1.058 0.113,2.089 0.367,3.121 0.539,2.316 2.18,5.89 6.559,8.961 -11.961,6.644 -17.309,18.453 -19.184,28.546 -4.695,-6.265 -11.328,-14.093 -18,-18.472 2.707,-2.547 4.594,-5.742 4.594,-8.918 0,-0.574 -0.062,-1.156 -0.203,-1.735 -1.129,-4.91 -6.219,-7.55 -15.063,-7.929 4.793,-5.715 9.262,-13.293 10.786,-19.864 5.789,1.309 12.636,0.278 17.972,-3.019 5.414,-3.348 8.688,-8.461 9.617,-14.727 7.387,2.317 15.434,0.086 22.067,-3.636 8.722,-4.934 15.398,-17.317 16.57,-29.852 l 2.172,-0.816 2.215,0.879 c 1.57,12.488 8.058,25.371 17.32,30.605 6.621,3.727 14.352,4.656 21.246,2.77 0.906,6.293 4.196,11.429 9.617,14.777 5.352,3.297 12.2,4.328 17.989,3.019 1.519,6.571 5.992,14.149 10.785,19.864 -8.848,0.379 -13.945,3.019 -15.078,7.929 -0.125,0.579 -0.192,1.161 -0.192,1.735 0,3.176 1.891,6.371 4.598,8.918 -6.672,4.379 -13.305,12.207 -18,18.472 -1.875,-10.093 -7.227,-21.902 -19.184,-28.546 4.379,-3.071 6.02,-6.645 6.559,-8.961 0.25,-1.032 0.363,-2.063 0.363,-3.121 0,-4.129 -1.859,-8.207 -5.285,-11.407 -3.144,-2.945 -7.176,-4.554 -11.289,-4.804 0.074,-0.731 0.113,-1.461 0.113,-2.192 0,-8.738 -5.679,-15.676 -10.433,-19.875 l -0.508,-0.429 -0.617,-0.254 c -1.196,-0.477 -3.082,-0.579 -4.793,0.578 -2.961,2.015 -3.297,4.648 -3.297,7.593 l -0.012,4.504 c -0.015,1.438 -0.015,2.821 -0.015,4.129 l 0.027,35.926 c 0,0 0,9.59 0,17.32 l 0.012,-0.023"
         style="fill:#6a932c;fill-opacity:1;fill-rule:nonzero;stroke:none"
         transform="matrix(0.13333333,0,0,-0.13333333,0,188.46667)" />
      <path
         id="path62"
         d="m 625.117,866.898 c -0.515,-0.003 -1.035,-0.007 -1.551,-0.007 -0.242,0 -0.48,0.004 -0.722,0.004 -0.785,-25.461 -4.164,-29.809 -4.164,-29.809 l 6.597,-8.555 6.578,8.535 c 0,0 -3.484,4.364 -4.335,29.829 -0.797,-0.004 -1.598,-0.004 -2.403,0.003"
         style="fill:#815737;fill-opacity:1;fill-rule:nonzero;stroke:none"
         transform="matrix(0.13333333,0,0,-0.13333333,0,188.46667)" />
      <path
         id="path63"
         d="m 655.164,879.32 c 0,0 2.274,0.434 4.789,1.274 -8.144,5.457 -15.515,17.758 -15.515,17.758 0,0 4.429,0.082 7.492,0.929 -5.328,5.199 -13.899,17.766 -13.899,17.766 0,0 2.61,0.316 4.809,0.629 -2.453,2.797 -8.406,12.582 -8.406,12.582 0,0 1.55,0.027 4.175,0.254 -6.984,6.543 -10.148,13.761 -10.148,13.761 0,0 1.512,-0.168 2.496,0.188 -2.496,2.586 -4.344,5.355 -5.789,7.828 -1.445,-2.473 -3.293,-5.242 -5.789,-7.828 0.98,-0.356 2.496,-0.188 2.496,-0.188 0,0 -3.164,-7.218 -10.152,-13.761 2.629,-0.227 4.179,-0.254 4.179,-0.254 0,0 -5.957,-9.785 -8.406,-12.582 2.199,-0.313 4.809,-0.629 4.809,-0.629 0,0 -8.575,-12.567 -13.899,-17.766 3.059,-0.847 7.489,-0.929 7.489,-0.929 0,0 -7.372,-12.301 -15.516,-17.758 2.519,-0.84 4.793,-1.274 4.793,-1.274 0,0 -1.52,-1.75 -4.231,-3.535 5.571,-1.406 10.625,-0.14 10.625,-0.14 0,0 -1.269,-1.446 -2.531,-2.879 5.117,-0.825 15.531,-2.133 26.133,-2 10.602,-0.133 21.016,1.175 26.133,2 -1.262,1.433 -2.535,2.879 -2.535,2.879 0,0 5.058,-1.266 10.625,0.14 -2.711,1.785 -4.227,3.535 -4.227,3.535"
         style="fill:#6a932c;fill-opacity:1;fill-rule:nonzero;stroke:none"
         transform="matrix(0.13333333,0,0,-0.13333333,0,188.46667)" />
      <path
         id="path64"
         d="m 397.969,993.445 c 11.215,0 20.301,1.235 20.301,2.77 3.011,13.535 8.8,31.395 12.238,36.485 -2.797,-0.37 -7.164,-2.24 -6.824,-7.25 -1.922,1.97 -5.114,0.5 -5.36,-2.2 3.227,-1.1 2.055,-5.31 0.614,-8.13 -1.61,-3.14 -6.239,-5.08 -10.762,-4.1 -5.133,1.11 -6.988,4.34 -7.414,7.85 -0.481,3.97 0.941,9.04 6.258,5.94 0.64,3.85 -2.723,8.1 -7.278,4.88 2.629,5.19 -1.773,9.37 -1.773,9.37 0,0 -4.406,-4.18 -1.778,-9.37 -4.554,3.22 -7.918,-1.03 -7.277,-4.88 5.316,3.1 6.738,-1.97 6.258,-5.94 -0.43,-3.51 -2.277,-6.74 -7.414,-7.85 -4.524,-0.98 -9.153,0.96 -10.762,4.1 -1.437,2.82 -2.613,7.03 0.613,8.13 -0.246,2.7 -3.437,4.17 -5.359,2.2 0.34,5.01 -4.027,6.88 -6.824,7.25 3.437,-5.09 9.226,-22.95 12.234,-36.485 0,-1.535 9.09,-2.77 20.309,-2.77"
         style="fill:#f5b70b;fill-opacity:1;fill-rule:evenodd;stroke:none"
         transform="matrix(0.13333333,0,0,-0.13333333,0,188.46667)" />
      <path
         id="path65"
         d="m 625.148,993.445 c 11.215,0 20.301,1.235 20.301,2.77 3.012,13.535 8.801,31.395 12.239,36.485 -2.797,-0.37 -7.165,-2.24 -6.825,-7.25 -1.922,1.97 -5.109,0.5 -5.359,-2.2 3.226,-1.1 2.055,-5.31 0.613,-8.13 -1.609,-3.14 -6.234,-5.08 -10.762,-4.1 -5.132,1.11 -6.988,4.34 -7.414,7.85 -0.48,3.97 0.946,9.04 6.258,5.94 0.641,3.85 -2.719,8.1 -7.277,4.88 2.633,5.19 -1.774,9.37 -1.774,9.37 0,0 -4.406,-4.18 -1.777,-9.37 -4.555,3.22 -7.918,-1.03 -7.273,-4.88 5.312,3.1 6.734,-1.97 6.254,-5.94 -0.426,-3.51 -2.278,-6.74 -7.414,-7.85 -4.524,-0.98 -9.153,0.96 -10.762,4.1 -1.438,2.82 -2.613,7.03 0.613,8.13 -0.246,2.7 -3.437,4.17 -5.359,2.2 0.34,5.01 -4.028,6.88 -6.825,7.25 3.438,-5.09 9.231,-22.95 12.239,-36.485 0,-1.535 9.086,-2.77 20.304,-2.77"
         style="fill:#f5b70b;fill-opacity:1;fill-rule:evenodd;stroke:none"
         transform="matrix(0.13333333,0,0,-0.13333333,0,188.46667)" />
      <path
         id="path66"
         d="m 625.148,389.641 c 11.215,0 20.301,1.238 20.301,2.769 3.012,13.531 8.801,31.395 12.239,36.485 -2.797,-0.368 -7.165,-2.231 -6.825,-7.243 -1.922,1.965 -5.109,0.489 -5.359,-2.211 3.226,-1.089 2.055,-5.3 0.613,-8.121 -1.609,-3.148 -6.234,-5.082 -10.762,-4.101 -5.132,1.109 -6.988,4.34 -7.414,7.851 -0.48,3.965 0.946,9.039 6.258,5.942 0.641,3.851 -2.719,8.093 -7.277,4.871 2.633,5.199 -1.774,9.379 -1.774,9.379 0,0 -4.406,-4.18 -1.777,-9.379 -4.555,3.222 -7.918,-1.02 -7.273,-4.871 5.312,3.097 6.734,-1.977 6.254,-5.942 -0.426,-3.511 -2.278,-6.742 -7.414,-7.851 -4.524,-0.981 -9.153,0.953 -10.762,4.101 -1.438,2.821 -2.613,7.032 0.613,8.121 -0.246,2.7 -3.437,4.176 -5.359,2.211 0.34,5.012 -4.028,6.875 -6.825,7.243 3.438,-5.09 9.231,-22.954 12.239,-36.485 0,-1.531 9.086,-2.769 20.304,-2.769"
         style="fill:#f5b70b;fill-opacity:1;fill-rule:evenodd;stroke:none"
         transform="matrix(0.13333333,0,0,-0.13333333,0,188.46667)" />
      <path
         id="path67"
         d="m 852.328,993.445 c 11.215,0 20.305,1.235 20.305,2.77 3.008,13.535 8.797,31.395 12.234,36.485 -2.797,-0.37 -7.164,-2.24 -6.82,-7.25 -1.926,1.97 -5.113,0.5 -5.363,-2.2 3.226,-1.1 2.054,-5.31 0.617,-8.13 -1.613,-3.14 -6.238,-5.08 -10.766,-4.1 -5.133,1.11 -6.984,4.34 -7.414,7.85 -0.48,3.97 0.945,9.04 6.258,5.94 0.641,3.85 -2.719,8.1 -7.277,4.88 2.632,5.19 -1.774,9.37 -1.774,9.37 0,0 -4.406,-4.18 -1.777,-9.37 -4.555,3.22 -7.918,-1.03 -7.274,-4.88 5.313,3.1 6.735,-1.97 6.254,-5.94 -0.426,-3.51 -2.277,-6.74 -7.414,-7.85 -4.523,-0.98 -9.152,0.96 -10.762,4.1 -1.437,2.82 -2.613,7.03 0.614,8.13 -0.246,2.7 -3.438,4.17 -5.36,2.2 0.34,5.01 -4.027,6.88 -6.824,7.25 3.438,-5.09 9.231,-22.95 12.238,-36.485 0,-1.535 9.086,-2.77 20.305,-2.77"
         style="fill:#f5b70b;fill-opacity:1;fill-rule:evenodd;stroke:none"
         transform="matrix(0.13333333,0,0,-0.13333333,0,188.46667)" />
      <path
         id="path68"
         d="m 397.969,746.496 c 11.215,0 20.301,1.234 20.301,2.77 3.011,13.531 8.8,31.394 12.238,36.48 -2.797,-0.363 -7.164,-2.23 -6.824,-7.238 -1.922,1.965 -5.114,0.488 -5.36,-2.211 3.227,-1.09 2.055,-5.301 0.614,-8.125 -1.61,-3.145 -6.239,-5.074 -10.762,-4.098 -5.133,1.11 -6.988,4.34 -7.414,7.852 -0.481,3.965 0.941,9.035 6.258,5.941 0.64,3.852 -2.723,8.094 -7.278,4.871 2.629,5.2 -1.773,9.375 -1.773,9.375 0,0 -4.406,-4.175 -1.778,-9.375 -4.554,3.223 -7.918,-1.019 -7.277,-4.871 5.316,3.094 6.738,-1.976 6.258,-5.941 -0.43,-3.512 -2.277,-6.742 -7.414,-7.852 -4.524,-0.976 -9.153,0.953 -10.762,4.098 -1.437,2.824 -2.613,7.035 0.613,8.125 -0.246,2.699 -3.437,4.176 -5.359,2.211 0.34,5.008 -4.027,6.875 -6.824,7.238 3.437,-5.086 9.226,-22.949 12.234,-36.48 0,-1.536 9.09,-2.77 20.309,-2.77"
         style="fill:#f5b70b;fill-opacity:1;fill-rule:evenodd;stroke:none"
         transform="matrix(0.13333333,0,0,-0.13333333,0,188.46667)" />
      <path
         id="path69"
         d="m 852.328,746.496 c 11.215,0 20.305,1.234 20.305,2.77 3.008,13.531 8.797,31.394 12.234,36.48 -2.797,-0.363 -7.164,-2.23 -6.82,-7.238 -1.926,1.965 -5.113,0.488 -5.363,-2.211 3.226,-1.09 2.054,-5.301 0.617,-8.125 -1.613,-3.145 -6.238,-5.074 -10.766,-4.098 -5.133,1.11 -6.984,4.34 -7.414,7.852 -0.48,3.965 0.945,9.035 6.258,5.941 0.641,3.852 -2.719,8.094 -7.277,4.871 2.632,5.2 -1.774,9.375 -1.774,9.375 0,0 -4.406,-4.175 -1.777,-9.375 -4.555,3.223 -7.918,-1.019 -7.274,-4.871 5.313,3.094 6.735,-1.976 6.254,-5.941 -0.426,-3.512 -2.277,-6.742 -7.414,-7.852 -4.523,-0.976 -9.152,0.953 -10.762,4.098 -1.437,2.824 -2.613,7.035 0.614,8.125 -0.246,2.699 -3.438,4.176 -5.36,2.211 0.34,5.008 -4.027,6.875 -6.824,7.238 3.438,-5.086 9.231,-22.949 12.238,-36.48 0,-1.536 9.086,-2.77 20.305,-2.77"
         style="fill:#f5b70b;fill-opacity:1;fill-rule:evenodd;stroke:none"
         transform="matrix(0.13333333,0,0,-0.13333333,0,188.46667)" />
      <path
         id="path70"
         d="m 449.309,522.309 c 11.218,0 20.304,1.238 20.304,2.769 3.008,13.531 8.797,31.395 12.235,36.481 -2.793,-0.364 -7.16,-2.231 -6.821,-7.239 -1.922,1.965 -5.113,0.489 -5.363,-2.211 3.231,-1.089 2.055,-5.3 0.617,-8.125 -1.609,-3.144 -6.238,-5.074 -10.761,-4.097 -5.137,1.113 -6.989,4.34 -7.418,7.851 -0.477,3.965 0.945,9.039 6.257,5.942 0.645,3.851 -2.718,8.093 -7.273,4.871 2.629,5.199 -1.777,9.379 -1.777,9.379 0,0 -4.407,-4.18 -1.778,-9.379 -4.554,3.222 -7.918,-1.02 -7.273,-4.871 5.312,3.097 6.734,-1.977 6.258,-5.942 -0.43,-3.511 -2.282,-6.738 -7.414,-7.851 -4.528,-0.977 -9.153,0.953 -10.766,4.097 -1.438,2.825 -2.609,7.036 0.617,8.125 -0.25,2.7 -3.441,4.176 -5.363,2.211 0.34,5.008 -4.027,6.875 -6.82,7.239 3.437,-5.086 9.226,-22.95 12.234,-36.481 0,-1.531 9.09,-2.769 20.305,-2.769"
         style="fill:#f5b70b;fill-opacity:1;fill-rule:evenodd;stroke:none"
         transform="matrix(0.13333333,0,0,-0.13333333,0,188.46667)" />
      <path
         id="path71"
         d="m 800.984,522.309 c 11.219,0 20.305,1.238 20.305,2.769 3.008,13.531 8.801,31.395 12.234,36.481 -2.793,-0.364 -7.16,-2.231 -6.82,-7.239 -1.922,1.965 -5.113,0.489 -5.359,-2.211 3.226,-1.089 2.051,-5.3 0.613,-8.125 -1.609,-3.144 -6.238,-5.074 -10.762,-4.097 -5.136,1.113 -6.988,4.34 -7.414,7.851 -0.48,3.965 0.942,9.039 6.254,5.942 0.645,3.851 -2.719,8.093 -7.273,4.871 2.629,5.199 -1.778,9.379 -1.778,9.379 0,0 -4.406,-4.18 -1.773,-9.379 -4.559,3.222 -7.918,-1.02 -7.277,-4.871 5.312,3.097 6.738,-1.977 6.257,-5.942 -0.429,-3.511 -2.281,-6.738 -7.414,-7.851 -4.527,-0.977 -9.152,0.953 -10.765,4.097 -1.438,2.825 -2.61,7.036 0.617,8.125 -0.25,2.7 -3.441,4.176 -5.363,2.211 0.339,5.008 -4.028,6.875 -6.821,7.239 3.438,-5.086 9.227,-22.95 12.235,-36.481 0,-1.531 9.09,-2.769 20.304,-2.769"
         style="fill:#f5b70b;fill-opacity:1;fill-rule:evenodd;stroke:none"
         transform="matrix(0.13333333,0,0,-0.13333333,0,188.46667)" />
      <path
         id="path72"
         d="m 494.32,779.27 c -2.441,0 -4.429,-1.989 -4.429,-4.43 0,-2.442 1.988,-4.43 4.429,-4.43 2.442,0 4.43,1.988 4.43,4.43 0,2.441 -1.988,4.43 -4.43,4.43"
         style="fill:#b91a32;fill-opacity:1;fill-rule:nonzero;stroke:none"
         transform="matrix(0.13333333,0,0,-0.13333333,0,188.46667)" />
      <path
         id="path73"
         d="m 515.555,726.391 c -4.223,-3.336 -6.391,-7.813 -7.52,-11.633 -0.004,-0.012 -0.015,-0.016 -0.019,-0.031 -0.981,-3.723 -4.235,-4.567 -7.746,-7.243 -2.168,2.934 -2.582,5.258 -2.665,8.614 -0.082,3.445 0.458,5.965 1.731,9.55 -1.898,2.602 -2.254,4.875 -2.324,5.981 -0.106,1.547 0.441,3.09 1.242,4.984 -0.848,1.828 -1.109,3.703 -1.164,5.203 -0.828,-0.07 -1.684,-0.109 -2.567,-0.113 0.09,-2.285 -0.054,-5.555 -1.566,-8.422 0.781,-1.773 1.359,-3.519 1.289,-5.593 -0.082,-2.434 -0.449,-3.372 -1.82,-5.602 1.496,-2.969 2.324,-6.117 2.41,-8.422 0.078,-2.101 0,-6.855 -1.352,-9.148 -3.496,3.445 -8.48,7.328 -9.898,10.711 -0.008,0.011 -0.012,0.019 -0.016,0.031 -1.39,3.902 -3.566,8.18 -6.992,11.328 -8.398,7.727 -17.637,7.391 -17.637,7.391 0,0 -2.199,-16.45 6.313,-24.356 4.473,-4.16 11.57,-4.82 16.164,-4.75 0.004,0 0.008,-0.004 0.012,-0.004 5.648,-0.554 10.984,-3.383 13,-7.207 0.062,-0.207 0.109,-0.379 0.175,-0.594 1.071,-3.453 -0.074,-5.972 -1.703,-8.648 4.012,-4.078 5.481,-9.813 9.332,-19.215 l 3.571,4.606 c -1.922,4.254 -2.93,8.804 -2.93,11.875 0,1.421 0.199,2.671 0.488,3.816 -2.695,2.516 -4.078,4.762 -4.664,7.953 -0.469,8.258 8.379,9.059 12.145,9.293 0.043,0.004 0.066,0.016 0.105,0.02 3.524,0.109 9.039,0.875 15.524,3.906 10.66,4.976 12.086,22.164 12.086,22.164 0,0 -15.387,-0.422 -23.004,-6.445"
         style="fill:#6a932c;fill-opacity:1;fill-rule:nonzero;stroke:none"
         transform="matrix(0.13333333,0,0,-0.13333333,0,188.46667)" />
    </g>
  </g>
</svg>
