<?xml version="1.0" encoding="utf-8"?>
<!-- Generator: Adobe Illustrator 24.1.0, SVG Export Plug-In . SVG Version: 6.00 Build 0)  -->
<svg version="1.1" id="Ebene_1" xmlns="http://www.w3.org/2000/svg" xmlns:xlink="http://www.w3.org/1999/xlink" x="0px" y="0px"
	 viewBox="0 0 225.7 94.6" style="enable-background:new 0 0 225.7 94.6;" xml:space="preserve">
<style type="text/css">
	.st0{fill:#F6F6F7;}
	.st1{fill:#3A4549;}
	.st2{fill:#FFFFFF;}
	.st3{fill:url(#SVGID_1_);}
	.st4{fill:url(#SVGID_2_);}
	.st5{fill:url(#SVGID_3_);}
	.st6{fill:url(#SVGID_4_);}
	.st7{fill:url(#SVGID_5_);}
	.st8{fill:url(#SVGID_6_);}
	.st9{fill:url(#SVGID_7_);}
	.st10{fill:url(#SVGID_8_);}
	.st11{fill:url(#SVGID_9_);}
	.st12{fill:url(#SVGID_10_);}
	.st13{fill:#343E42;}
	.st14{fill:#B9BEBF;}
	.st15{fill:url(#SVGID_11_);}
	.st16{fill:url(#SVGID_12_);}
	.st17{fill:url(#SVGID_13_);}
	.st18{fill:url(#SVGID_14_);}
	.st19{fill:url(#SVGID_15_);}
	.st20{fill:url(#SVGID_16_);}
	.st21{fill:url(#SVGID_17_);}
	.st22{fill:url(#SVGID_18_);}
	.st23{fill:url(#SVGID_19_);}
	.st24{fill:url(#SVGID_20_);}
	.st25{fill:url(#SVGID_21_);}
	.st26{fill:url(#SVGID_22_);}
	.st27{opacity:0.7;fill:#FFFFFF;}
	.st28{fill:url(#SVGID_23_);}
	.st29{fill:url(#SVGID_24_);}
	.st30{fill:url(#SVGID_25_);}
	.st31{fill:url(#SVGID_26_);}
	.st32{fill:url(#SVGID_27_);}
	.st33{fill-rule:evenodd;clip-rule:evenodd;fill:#F6F7F6;}
	.st34{fill:url(#SVGID_28_);}
	.st35{fill-rule:evenodd;clip-rule:evenodd;fill:#0097B6;}
	.st36{fill-rule:evenodd;clip-rule:evenodd;fill:#89BA49;}
	.st37{fill:#1D1D1B;}
	.st38{fill-rule:evenodd;clip-rule:evenodd;fill:#1D1D1B;}
</style>
<g>
	<path class="st35" d="M135.9,35.9h10c2.6,0,2.6,4,0,4h-10C133.2,39.9,133.2,35.9,135.9,35.9L135.9,35.9z M100.9,35.9h10
		c2.6,0,2.6,4,0,4h-10C98.3,39.9,98.3,35.9,100.9,35.9L100.9,35.9z M83.4,35.9h10c2.6,0,2.6,4,0,4h-10
		C80.8,39.9,80.8,35.9,83.4,35.9L83.4,35.9z M135.9,42.4h10c2.6,0,2.6,4,0,4h-10C133.2,46.4,133.2,42.4,135.9,42.4L135.9,42.4z
		 M118.4,42.4h10c2.6,0,2.6,4,0,4h-10C115.7,46.4,115.7,42.4,118.4,42.4L118.4,42.4z"/>
	<path class="st35" d="M135.9,3.3h10c2.6,0,2.6,4,0,4h-10C133.2,7.3,133.2,3.3,135.9,3.3L135.9,3.3z M170.8,9.8h10c2.6,0,2.6,4,0,4
		h-10C168.2,13.8,168.2,9.8,170.8,9.8L170.8,9.8z M135.9,9.8h10c2.6,0,2.6,4,0,4h-10C133.2,13.8,133.2,9.8,135.9,9.8L135.9,9.8z
		 M118.4,9.8h10c2.6,0,2.6,4,0,4h-10C115.7,13.8,115.7,9.8,118.4,9.8L118.4,9.8z M153.3,16.3h10c2.6,0,2.6,4,0,4h-10
		C150.7,20.3,150.7,16.3,153.3,16.3L153.3,16.3z M118.4,16.3h10c2.6,0,2.6,4,0,4h-10C115.7,20.3,115.7,16.3,118.4,16.3L118.4,16.3z
		 M100.9,16.3h10c2.6,0,2.6,4,0,4h-10C98.3,20.3,98.3,16.3,100.9,16.3L100.9,16.3z M135.9,22.9h10c2.6,0,2.6,4,0,4h-10
		C133.2,26.8,133.2,22.9,135.9,22.9L135.9,22.9z M118.4,22.9h10c2.6,0,2.6,4,0,4h-10C115.7,26.8,115.7,22.9,118.4,22.9L118.4,22.9z
		 M100.9,22.9h10c2.6,0,2.6,4,0,4h-10C98.3,26.8,98.3,22.9,100.9,22.9L100.9,22.9z M153.3,29.4h10c2.6,0,2.6,4,0,4h-10
		C150.7,33.3,150.7,29.4,153.3,29.4L153.3,29.4z M135.9,29.4h10c2.6,0,2.6,4,0,4h-10C133.2,33.3,133.2,29.4,135.9,29.4L135.9,29.4z
		 M100.9,29.4h10c2.6,0,2.6,4,0,4h-10C98.3,33.3,98.3,29.4,100.9,29.4L100.9,29.4z"/>
	<path class="st36" d="M188.3,35.9h10c2.6,0,2.6,4,0,4h-10C185.6,39.9,185.6,35.9,188.3,35.9L188.3,35.9z M170.8,35.9h10
		c2.6,0,2.6,4,0,4h-10C168.2,39.9,168.2,35.9,170.8,35.9L170.8,35.9z M153.3,35.9h10c2.6,0,2.6,4,0,4h-10
		C150.7,39.9,150.7,35.9,153.3,35.9L153.3,35.9z M118.4,35.9h10c2.6,0,2.6,4,0,4h-10C115.7,39.9,115.7,35.9,118.4,35.9L118.4,35.9z
		 M170.8,42.4h10c2.6,0,2.6,4,0,4h-10C168.2,46.4,168.2,42.4,170.8,42.4L170.8,42.4z M153.3,42.4h10c2.6,0,2.6,4,0,4h-10
		C150.7,46.4,150.7,42.4,153.3,42.4L153.3,42.4z"/>
	<path class="st36" d="M170.8,3.3h10c2.6,0,2.6,4,0,4h-10C168.2,7.3,168.2,3.3,170.8,3.3L170.8,3.3z M205.8,9.8h10c2.6,0,2.6,4,0,4
		h-10C203.1,13.8,203.1,9.8,205.8,9.8L205.8,9.8z M188.3,9.8h10c2.6,0,2.6,4,0,4h-10C185.6,13.8,185.6,9.8,188.3,9.8L188.3,9.8z
		 M153.3,9.8h10c2.6,0,2.6,4,0,4h-10C150.7,13.8,150.7,9.8,153.3,9.8L153.3,9.8z M188.3,16.3h10c2.6,0,2.6,4,0,4h-10
		C185.6,20.3,185.6,16.3,188.3,16.3L188.3,16.3z M170.8,16.3h10c2.6,0,2.6,4,0,4h-10C168.2,20.3,168.2,16.3,170.8,16.3L170.8,16.3z
		 M135.9,16.3h10c2.6,0,2.6,4,0,4h-10C133.2,20.3,133.2,16.3,135.9,16.3L135.9,16.3z M170.8,22.9h10c2.6,0,2.6,4,0,4h-10
		C168.2,26.8,168.2,22.9,170.8,22.9L170.8,22.9z M153.3,22.9h10c2.6,0,2.6,4,0,4h-10C150.7,26.8,150.7,22.9,153.3,22.9L153.3,22.9z
		 M188.3,29.4h10c2.6,0,2.6,4,0,4h-10C185.6,33.3,185.6,29.4,188.3,29.4L188.3,29.4z M170.8,29.4h10c2.6,0,2.6,4,0,4h-10
		C168.2,33.3,168.2,29.4,170.8,29.4L170.8,29.4z"/>
	<path class="st37" d="M14.5,58.4c-0.6-0.2-1.3-0.3-2.2-0.3c-2.8,0-4.3,2-4.3,4.6c0,2.7,1.5,4.7,4.4,4.7c0.9,0,1.6-0.1,2.3-0.3
		l-0.1-1.9c-0.4,0.2-1.1,0.4-1.8,0.4c-1.6,0-2.4-1.3-2.4-2.9c0-1.7,0.9-2.8,2.3-2.8c0.7,0,1.1,0.1,1.6,0.3L14.5,58.4L14.5,58.4z"/>
	<path class="st38" d="M15.4,62.8c0,2.5,1.7,4.6,4.6,4.6c2.9,0,4.6-2,4.6-4.6c0-2.9-2-4.7-4.6-4.7C17.4,58.1,15.4,59.9,15.4,62.8
		L15.4,62.8z M17.8,62.5c0-1.3,0.7-2.6,2.2-2.6c1.5,0,2.2,1.3,2.2,2.6c0,1.5-0.5,3-2.2,3C18.3,65.6,17.8,64,17.8,62.5L17.8,62.5z"/>
	<path class="st37" d="M26.2,67.1h2.3v-4.3c0-1.1,0.4-2.9,2-2.9c1.5,0,1.5,1.5,1.5,2.5v4.7h2.3v-5.6c0-2-0.9-3.5-3-3.5
		c-1.2,0-2.2,0.4-2.9,1.4h0v-1.2h-2.2V67.1L26.2,67.1z"/>
	<path class="st38" d="M40.2,65.4c-1.3,0-2-1.5-2-2.7c0-1.4,0.5-2.8,2.1-2.8c1.3,0,1.9,1.2,1.9,2.7C42.2,64.1,41.6,65.4,40.2,65.4
		L40.2,65.4z M42.3,58.3v1.2h0c-0.6-1-1.5-1.4-2.7-1.4c-2.6,0-3.7,2.4-3.7,4.6c0,2.4,1,4.5,3.6,4.5c1.3,0,2.3-0.7,2.7-1.4h0
		c0,1.5-0.1,3.4-2.7,3.4c-0.7,0-1.9-0.4-2.6-0.8l-0.2,2c1.1,0.5,2.1,0.6,3,0.6c3.7,0,4.7-2.3,4.7-4.7v-8H42.3L42.3,58.3z"/>
	<path class="st37" d="M46.6,67.1h2.3v-3.2c0-1.3,0-3.6,1.9-3.6c0.4,0,0.8,0.1,1,0.2v-2.3c-0.2-0.1-0.5-0.1-0.7-0.1
		c-1.4,0-2.3,1.4-2.4,2.2h0v-2h-2V67.1L46.6,67.1z"/>
	<path class="st38" d="M54.5,61.9c0.1-1.2,0.8-2.1,2-2.1c1.3,0,1.8,1,1.9,2.1H54.5L54.5,61.9z M60,64.8c-0.9,0.5-1.8,0.9-2.9,0.9
		c-1.4,0-2.4-0.8-2.5-2.2h6.1c0-3.1-0.9-5.3-4.2-5.3c-2.7,0-4.1,2.1-4.1,4.7c0,2.9,1.7,4.6,4.6,4.6c1.2,0,2.2-0.2,3-0.7V64.8
		L60,64.8z"/>
	<path class="st37" d="M67.8,58.4c-0.7-0.2-1.4-0.3-2.5-0.3c-1.8,0-3.5,0.8-3.5,2.7c0,3.2,4,2,4,3.7c0,0.9-0.9,1.1-1.5,1.1
		c-0.8,0-1.5-0.2-2.3-0.6L61.9,67c0.8,0.2,1.7,0.4,2.6,0.4c1.9,0,3.7-0.8,3.7-2.9c0-3.2-4-2.3-4-3.7c0-0.8,0.7-1,1.4-1
		c0.8,0,1.4,0.1,2.1,0.4L67.8,58.4L67.8,58.4z"/>
	<path class="st37" d="M75.4,58.4c-0.7-0.2-1.4-0.3-2.5-0.3c-1.8,0-3.5,0.8-3.5,2.7c0,3.2,4,2,4,3.7c0,0.9-0.9,1.1-1.5,1.1
		c-0.8,0-1.5-0.2-2.3-0.6L69.5,67c0.8,0.2,1.7,0.4,2.6,0.4c1.9,0,3.7-0.8,3.7-2.9c0-3.2-4-2.3-4-3.7c0-0.8,0.7-1,1.4-1
		c0.8,0,1.4,0.1,2.1,0.4L75.4,58.4L75.4,58.4z"/>
	<path class="st37" d="M87.8,58.4c-0.6-0.2-1.3-0.3-2.2-0.3c-2.8,0-4.3,2-4.3,4.6c0,2.7,1.5,4.7,4.4,4.7c0.9,0,1.6-0.1,2.3-0.3
		l-0.1-1.9c-0.4,0.2-1.1,0.4-1.8,0.4c-1.6,0-2.4-1.3-2.4-2.9c0-1.7,0.9-2.8,2.3-2.8c0.7,0,1.1,0.1,1.6,0.3L87.8,58.4L87.8,58.4z"/>
	<path class="st38" d="M90.9,61.9c0.1-1.2,0.8-2.1,2-2.1c1.3,0,1.8,1,1.9,2.1H90.9L90.9,61.9z M96.4,64.8c-0.9,0.5-1.8,0.9-2.9,0.9
		c-1.4,0-2.4-0.8-2.5-2.2H97c0-3.1-0.9-5.3-4.2-5.3c-2.7,0-4.1,2.1-4.1,4.7c0,2.9,1.7,4.6,4.6,4.6c1.2,0,2.2-0.2,3-0.7V64.8
		L96.4,64.8z"/>
	<path class="st37" d="M98.8,67.1h2.3v-4.3c0-1.1,0.4-2.9,2-2.9c1.5,0,1.5,1.5,1.5,2.5v4.7h2.3v-5.6c0-2-0.9-3.5-3-3.5
		c-1.2,0-2.2,0.4-2.9,1.4h0v-1.2h-2.2V67.1L98.8,67.1z"/>
	<path class="st37" d="M109.5,64.5c0,1.7,1,2.9,2.8,2.9c0.7,0,1.2-0.1,1.7-0.2l-0.1-1.8c-0.2,0.2-0.6,0.2-1,0.2
		c-0.9,0-1.1-0.7-1.1-1.5V60h2v-1.7h-2v-2.5l-2.3,0.7v1.8h-1.7V60h1.7V64.5L109.5,64.5z"/>
	<path class="st37" d="M115.4,67.1h2.3v-3.2c0-1.3,0-3.6,1.9-3.6c0.4,0,0.8,0.1,1,0.2v-2.3c-0.2-0.1-0.5-0.1-0.7-0.1
		c-1.4,0-2.3,1.4-2.4,2.2h0v-2h-2V67.1L115.4,67.1z"/>
	<path class="st37" d="M130.2,58.3h-2.3v4.3c0,1.1-0.4,2.9-2,2.9c-1.5,0-1.5-1.5-1.5-2.5v-4.7h-2.3v5.6c0,2,0.9,3.5,3,3.5
		c1.2,0,2.2-0.5,2.9-1.4h0v1.2h2.2V58.3L130.2,58.3z"/>
	<path class="st37" d="M132.5,67.1h2.3v-4.3c0-1.1,0.2-3,1.7-3c1.3,0,1.3,1.2,1.3,2v5.3h2.3v-4.3c0-1.1,0.2-3,1.7-3
		c1.3,0,1.3,1.2,1.3,2v5.3h2.3v-5.6c0-2-0.6-3.5-2.8-3.5c-1.1,0-2.2,0.5-2.8,1.6c-0.5-1.1-1.4-1.6-2.6-1.6c-0.9,0-1.9,0.4-2.6,1.4h0
		v-1.2h-2.1V67.1L132.5,67.1z"/>
	<path class="st37" d="M157,58.4c-0.7-0.2-1.4-0.3-2.5-0.3c-1.8,0-3.5,0.8-3.5,2.7c0,3.2,4,2,4,3.7c0,0.9-0.9,1.1-1.5,1.1
		c-0.8,0-1.5-0.2-2.3-0.6l-0.1,1.9c0.8,0.2,1.7,0.4,2.6,0.4c1.9,0,3.7-0.8,3.7-2.9c0-3.2-4-2.3-4-3.7c0-0.8,0.7-1,1.4-1
		c0.8,0,1.4,0.1,2.1,0.4L157,58.4L157,58.4z"/>
	<path class="st38" d="M159.6,60.8c0.8-0.6,1.7-1,2.7-1c1.4,0,2,0.5,2,1.9h-1.3c-1,0-2.1,0.1-3,0.5c-0.9,0.4-1.5,1.2-1.5,2.5
		c0,1.7,1.5,2.6,3.1,2.6c1,0,2.2-0.5,2.7-1.5h0c0,0.3,0,0.9,0.1,1.3h2c-0.1-0.7-0.1-1.3-0.1-2c0-0.7,0-1.3,0-2.2v-1.1
		c0-2.6-1.1-3.7-3.8-3.7c-1,0-2.2,0.3-3.1,0.7L159.6,60.8L159.6,60.8z M160.8,64.6c0-1.4,1.5-1.5,2.6-1.5h1c0,0.7-0.1,1.3-0.5,1.8
		c-0.4,0.5-0.9,0.8-1.6,0.8C161.4,65.7,160.8,65.3,160.8,64.6L160.8,64.6z"/>
	<path class="st38" d="M169,60.8c0.8-0.6,1.7-1,2.7-1c1.4,0,2,0.5,2,1.9h-1.3c-1,0-2.1,0.1-3,0.5c-0.9,0.4-1.5,1.2-1.5,2.5
		c0,1.7,1.5,2.6,3.1,2.6c1,0,2.2-0.5,2.7-1.5h0c0,0.3,0,0.9,0.1,1.3h2c-0.1-0.7-0.1-1.3-0.1-2c0-0.7,0-1.3,0-2.2v-1.1
		c0-2.6-1.1-3.7-3.8-3.7c-1,0-2.2,0.3-3.1,0.7L169,60.8L169,60.8z M170.1,64.6c0-1.4,1.5-1.5,2.6-1.5h1c0,0.7-0.1,1.3-0.5,1.8
		c-0.4,0.5-0.9,0.8-1.6,0.8C170.8,65.7,170.1,65.3,170.1,64.6L170.1,64.6z"/>
	<path class="st37" d="M177.8,67.1h2.3v-3.2c0-1.3,0-3.6,1.9-3.6c0.4,0,0.8,0.1,1,0.2v-2.3c-0.2-0.1-0.5-0.1-0.7-0.1
		c-1.4,0-2.3,1.4-2.4,2.2h0v-2h-2V67.1L177.8,67.1z"/>
	<path class="st37" d="M202,58.4c-0.6-0.2-1.3-0.3-2.2-0.3c-2.8,0-4.3,2-4.3,4.6c0,2.7,1.5,4.7,4.4,4.7c0.9,0,1.6-0.1,2.3-0.3
		l-0.1-1.9c-0.4,0.2-1.1,0.4-1.8,0.4c-1.6,0-2.4-1.3-2.4-2.9c0-1.7,0.9-2.8,2.3-2.8c0.7,0,1.1,0.1,1.6,0.3L202,58.4L202,58.4z"/>
	<path class="st37" d="M209.6,58.4c-0.6-0.2-1.3-0.3-2.2-0.3c-2.8,0-4.3,2-4.3,4.6c0,2.7,1.5,4.7,4.4,4.7c0.9,0,1.6-0.1,2.3-0.3
		l-0.1-1.9c-0.4,0.2-1.1,0.4-1.8,0.4c-1.6,0-2.4-1.3-2.4-2.9c0-1.7,0.9-2.8,2.3-2.8c0.7,0,1.1,0.1,1.6,0.3L209.6,58.4L209.6,58.4z"
		/>
	<path class="st37" d="M216.7,58.4c-0.7-0.2-1.4-0.3-2.5-0.3c-1.8,0-3.5,0.8-3.5,2.7c0,3.2,4,2,4,3.7c0,0.9-0.9,1.1-1.5,1.1
		c-0.8,0-1.5-0.2-2.3-0.6l-0.1,1.9c0.8,0.2,1.7,0.4,2.6,0.4c1.9,0,3.7-0.8,3.7-2.9c0-3.2-4-2.3-4-3.7c0-0.8,0.7-1,1.4-1
		c0.8,0,1.4,0.1,2.1,0.4L216.7,58.4L216.7,58.4z"/>
	<path class="st37" d="M8.5,90.7c0.7,0.3,1.8,0.6,3.2,0.6c2.2,0,4.6-1.1,4.6-3.9c0-4.1-6.4-4.1-6.4-6.9c0-1.8,1.6-2.4,3-2.4
		c0.9,0,1.9,0.2,2.5,0.5l0.2-1.3c-1-0.4-2.1-0.5-2.7-0.5c-2.5,0-4.4,1.4-4.4,3.6c0,3.7,6.4,4,6.4,6.7c0,2-1.4,2.9-3.1,2.9
		c-1.3,0-2.3-0.3-3.1-0.8L8.5,90.7L8.5,90.7z"/>
	<path class="st38" d="M20.6,91h1.3l1.5-3.7h7L32,91h1.4l-5.5-14h-1.6L20.6,91L20.6,91z M30,86.1H24l3-7.7L30,86.1L30,86.1z"/>
	<path class="st38" d="M38.4,91h1.3l1.5-3.7h7l1.5,3.7h1.4l-5.5-14h-1.6L38.4,91L38.4,91z M47.8,86.1h-6.1l3-7.7L47.8,86.1
		L47.8,86.1z"/>
	<path class="st38" d="M59.5,78.3h1.4c1.9,0,3.5,0.1,3.5,2.4c0,1.9-1.9,2.6-3.5,2.6h-1.5V78.3L59.5,78.3z M58.1,91h1.4v-6.6h1.1
		c1.3,0,1.9,0.1,2.7,1.9l2,4.7h1.5l-2.4-5.4c-0.4-0.9-0.7-1.5-1.8-1.7v0c1.7-0.2,3.1-1.4,3.1-3.2c0-2.6-1.6-3.6-4.1-3.6h-3.6V91
		L58.1,91z"/>
	<path class="st38" d="M74.7,91h2.8c2.9,0,5.4-0.9,5.4-4c0-1.8-1.2-3-3-3.3v0c1.7-0.3,2.5-1.4,2.5-3.2c0-2.7-2.1-3.4-4.4-3.4h-3.3
		V91L74.7,91z M76.1,84.4h1.2c2,0,4.2,0.3,4.2,2.7c0,2.2-2.1,2.7-4,2.7h-1.4V84.4L76.1,84.4z M76.1,78.3H78c1.2,0,3,0.3,3,2.3
		c0,2.2-1.9,2.6-3.4,2.6h-1.5V78.3L76.1,78.3z"/>
	<path class="st38" d="M92.4,78.3h1.4c1.9,0,3.5,0.1,3.5,2.4c0,1.9-1.9,2.6-3.5,2.6h-1.5V78.3L92.4,78.3z M91,91h1.4v-6.6h1.1
		c1.3,0,1.9,0.1,2.7,1.9l2,4.7h1.5l-2.4-5.4c-0.4-0.9-0.7-1.5-1.8-1.7v0c1.7-0.2,3.1-1.4,3.1-3.2c0-2.6-1.6-3.6-4.1-3.6H91V91L91,91
		z"/>
	<path class="st38" d="M112.8,75.9h1.5v-1.7h-1.5V75.9L112.8,75.9z M109.4,75.9h1.5v-1.7h-1.5V75.9L109.4,75.9z M116.9,77.1h-1.4
		v9.1c0,2.3-1.3,3.9-3.7,3.9c-2.4,0-3.7-1.6-3.7-3.9v-9.1h-1.4v9.1c0,4.1,3,5.1,5.1,5.1c2,0,5.1-1,5.1-5.1V77.1L116.9,77.1z"/>
	<path class="st37" d="M134.1,77.3c-0.7-0.4-2.4-0.5-3.2-0.5c-4.3,0-7,3-7,7.2c0,4.3,2.6,7.2,7,7.2c0.9,0,2.4-0.1,3.2-0.6l-0.1-1.2
		c-0.8,0.5-2.2,0.6-3.1,0.6c-3.7,0-5.7-2.5-5.7-6c0-3.5,2-6,5.7-6c1,0,2.2,0.1,3.1,0.6L134.1,77.3L134.1,77.3z"/>
	<polygon class="st37" points="140.9,91 142.3,91 142.3,84 149.1,91 151,91 143.6,83.6 150.4,77.1 148.6,77.1 142.3,83.3 
		142.3,77.1 140.9,77.1 140.9,91 	"/>
	<polygon class="st37" points="157.4,91 164.5,91 164.5,89.8 158.8,89.8 158.8,84.4 164,84.4 164,83.2 158.8,83.2 158.8,78.3 
		164.2,78.3 164.2,77.1 157.4,77.1 157.4,91 	"/>
	<polygon class="st37" points="172.4,91 173.8,91 173.8,79 173.8,79 180.8,91 182.7,91 182.7,77.1 181.3,77.1 181.3,89.3 
		181.3,89.3 174.2,77.1 172.4,77.1 172.4,91 	"/>
	<polygon class="st37" points="190.1,56.3 190.1,68.7 189.1,68.7 189.1,56.3 190.1,56.3 	"/>
</g>
</svg>
